<?xml version="1.0" standalone="no"?>
<!DOCTYPE svg PUBLIC "-//W3C//DTD SVG 20010904//EN"
 "http://www.w3.org/TR/2001/REC-SVG-20010904/DTD/svg10.dtd">
<svg version="1.0" xmlns="http://www.w3.org/2000/svg"
 width="300.000000pt" height="150.000000pt" viewBox="0 0 300.000000 150.000000"
 preserveAspectRatio="xMidYMid meet">
<metadata>
Created by potrace 1.10, written by Peter Selinger 2001-2011
</metadata>
<g transform="translate(0.000000,150.000000) scale(0.100000,-0.100000)"
fill="#000000" stroke="none">
<path d="M648 1493 c-17 -4 -24 -23 -18 -48 1 -5 3 -28 5 -50 7 -104 18 -201
23 -210 4 -5 5 -22 3 -37 -3 -30 13 -38 23 -13 3 8 1 15 -5 15 -6 0 -8 4 -5 9
3 5 20 8 38 7 23 -1 34 -7 36 -20 5 -26 -16 -45 -28 -26 -7 10 -10 11 -10 3 0
-7 -8 -13 -19 -13 -22 0 -34 -45 -19 -73 5 -11 7 -29 4 -42 -3 -13 -1 -27 5
-31 7 -4 9 -20 6 -40 -3 -19 -2 -36 3 -39 5 -3 9 -23 9 -43 0 -20 2 -57 5 -82
3 -25 6 -54 7 -65 1 -11 7 -67 14 -125 7 -58 13 -114 14 -125 1 -11 3 -38 6
-60 3 -22 7 -65 9 -95 2 -30 9 -98 15 -151 7 -53 13 -106 14 -118 1 -20 6 -22
52 -19 l50 3 -2 65 c-1 36 -4 81 -8 100 -3 19 -8 71 -10 114 -3 43 -8 88 -11
100 -7 22 -11 49 -17 136 -3 30 -10 90 -17 132 -6 43 -8 83 -5 88 4 6 2 16 -4
23 -5 7 -11 37 -11 67 -1 30 -6 70 -12 88 -5 18 -11 65 -13 105 -7 129 -16
211 -26 223 -5 7 -10 42 -11 78 0 37 -5 69 -10 72 -5 3 -6 14 -3 24 3 11 -1
33 -10 50 -15 29 -28 33 -67 23z m60 -45 c2 -20 -1 -28 -12 -28 -10 0 -13 6
-10 15 4 8 1 15 -5 15 -6 0 -10 -5 -8 -12 1 -6 -7 -13 -18 -15 -11 -1 -14 0
-8 3 9 4 10 11 3 23 -12 23 -8 27 27 26 23 0 29 -5 31 -27z m8 -75 c-1 -21 -7
-26 -32 -29 -28 -3 -31 -1 -31 24 0 25 4 28 32 29 28 1 32 -2 31 -24z m10 -69
c-3 -9 -6 -20 -6 -25 0 -5 -5 -9 -11 -9 -6 0 -8 9 -4 20 4 11 2 20 -4 20 -6 0
-11 -11 -11 -25 0 -37 -27 -32 -28 5 -1 28 2 30 35 30 28 0 34 -3 29 -16z m12
-88 c3 -22 0 -27 -15 -25 -10 2 -24 0 -31 -5 -7 -4 -16 -5 -20 -1 -3 3 0 10 8
15 11 7 12 10 2 10 -7 0 -10 5 -7 10 3 6 0 11 -7 11 -7 1 1 5 17 9 42 11 50 7
53 -24z m-18 -136 c13 21 42 3 38 -22 -2 -19 -9 -23 -37 -21 -42 3 -45 6 -30
35 8 16 14 19 17 9 3 -10 6 -11 12 -1z m4 -86 c10 -26 7 -34 -14 -34 -11 0
-20 4 -20 9 0 17 12 41 20 41 4 0 11 -7 14 -16z m38 -9 c4 -17 1 -25 -8 -25
-8 0 -14 4 -14 9 0 5 -3 16 -6 25 -4 10 -1 16 9 16 8 0 17 -11 19 -25z m9 -78
c7 -26 6 -27 -32 -27 -38 0 -48 11 -31 36 8 13 33 23 46 20 6 -1 13 -14 17
-29z m12 -69 c8 -27 1 -38 -23 -38 -29 0 -50 11 -50 25 0 23 21 28 36 9 14
-18 15 -18 9 4 -5 15 -2 22 8 22 8 0 17 -10 20 -22z m-33 -75 c0 -15 2 -14 14
3 15 20 23 19 26 -6 5 -30 -1 -36 -31 -34 -38 3 -43 7 -34 33 8 25 25 28 25 4z
m46 -90 c-1 -30 -24 -38 -59 -21 -27 13 -4 48 32 48 24 0 28 -4 27 -27z m12
-84 c-3 -25 -28 -32 -61 -16 -14 6 -15 12 -6 28 6 12 17 18 24 15 8 -3 17 0
21 5 10 17 26 -6 22 -32z m8 -61 c-3 -13 -6 -26 -6 -30 0 -19 -20 -5 -21 15
l-2 22 -4 -22 c-2 -13 -11 -23 -18 -23 -34 0 -27 46 8 53 46 9 50 8 43 -15z
m12 -90 c3 -26 1 -28 -32 -28 -40 0 -51 12 -37 38 6 11 20 18 38 17 23 0 29
-5 31 -27z m7 -78 c0 -19 -6 -25 -26 -27 -38 -2 -53 10 -40 34 6 13 20 20 38
19 23 -1 28 -6 28 -26z m-35 -62 c0 -9 3 -9 9 1 5 8 16 11 26 8 23 -10 16 -52
-10 -53 -11 -1 -27 -3 -35 -5 -11 -3 -16 6 -18 29 -2 24 1 32 12 32 9 0 16 -6
16 -12z m19 -90 l11 -23 -6 23 c-4 16 -1 22 10 22 9 0 16 -6 16 -14 0 -8 3
-21 6 -29 4 -11 -4 -15 -35 -15 -39 -1 -41 1 -41 29 0 35 22 39 39 7z m46 -90
c-1 -19 -8 -24 -38 -26 -35 -3 -37 -2 -37 27 0 25 4 30 28 33 35 5 49 -6 47
-34z m7 -78 c3 -22 -1 -25 -34 -28 -38 -3 -39 -3 -42 40 -1 14 54 29 66 19 4
-4 9 -18 10 -31z"/>
<path d="M1087 1493 c-10 -10 -8 -61 3 -68 5 -3 6 -13 3 -21 -8 -21 16 -64 33
-57 9 3 14 -3 15 -18 l0 -24 9 23 c14 34 33 28 25 -8 -5 -22 -3 -30 7 -30 36
-1 79 -65 73 -109 -2 -17 0 -33 5 -36 4 -3 7 -19 5 -37 -1 -17 2 -36 8 -42 6
-7 68 -11 171 -10 145 1 206 4 356 19 63 7 204 17 275 20 33 2 91 7 128 12 38
5 98 9 135 7 49 -1 76 3 99 16 18 9 30 20 27 23 -4 3 -9 21 -13 38 -9 42 -40
51 -117 33 -32 -7 -61 -11 -65 -9 -4 3 -30 0 -59 -5 -31 -6 -67 -6 -91 -1 -21
5 -41 6 -44 1 -2 -4 -39 -10 -82 -13 -43 -3 -88 -9 -100 -13 -19 -5 -23 -2
-23 15 0 27 6 29 105 35 44 4 103 8 130 11 28 3 105 7 173 9 90 3 128 8 140
19 9 8 26 17 37 19 19 3 19 4 -2 23 -13 11 -23 25 -23 33 0 7 -5 10 -11 7 -5
-4 -19 1 -29 10 -16 14 -33 16 -109 12 -50 -3 -98 -10 -108 -15 -19 -11 -25
-12 -48 -12 -8 0 -15 -4 -15 -10 0 -5 11 -10 25 -10 14 0 25 5 25 10 0 6 8 5
20 -2 15 -9 22 -10 31 -1 6 6 26 9 43 6 18 -3 49 0 69 5 29 8 40 7 51 -4 8 -8
19 -14 24 -14 16 0 23 -31 11 -46 -7 -9 -17 -11 -28 -5 -9 5 -36 7 -61 4 -25
-3 -55 -5 -67 -5 -13 1 -29 1 -35 2 -33 1 -91 -10 -103 -20 -10 -8 -15 -8 -20
0 -7 11 -118 12 -139 1 -13 -6 -146 -4 -153 2 -3 3 -10 4 -16 2 -7 -3 -23 -6
-37 -9 -14 -2 -29 -5 -35 -6 -35 -8 -55 1 -55 24 0 22 4 23 68 25 37 1 69 6
70 11 6 17 22 11 23 -7 0 -11 3 -13 6 -5 6 14 63 17 63 2 0 -16 27 -12 34 5 3
9 11 15 18 14 7 -2 32 1 56 5 34 6 47 4 61 -8 24 -22 31 -20 31 10 0 19 -4 25
-15 20 -8 -3 -20 1 -27 8 -10 10 -23 10 -73 0 -33 -8 -98 -16 -145 -19 -120
-7 -160 -13 -174 -23 -13 -11 -76 -10 -95 2 -12 8 -103 10 -132 4 -6 -2 -14 3
-16 10 -3 7 9 18 29 26 18 8 37 18 41 22 13 14 80 12 108 -2 36 -18 156 -17
259 3 19 3 73 7 120 8 47 1 104 5 128 9 24 5 48 4 55 -1 7 -6 26 -8 42 -6 17
2 76 5 132 7 85 2 106 5 124 22 36 32 45 84 15 84 -8 0 -11 -11 -8 -29 6 -44
-20 -53 -128 -45 -65 5 -90 4 -90 -5 0 -17 -72 -14 -98 5 -12 8 -22 11 -22 6
0 -14 -77 -30 -107 -22 -30 7 -127 -1 -139 -11 -13 -10 -17 -10 -24 1 -7 12
-13 12 -35 0 -21 -11 -28 -12 -34 -1 -6 10 -19 10 -65 -2 -36 -10 -58 -12 -62
-5 -4 5 -19 7 -34 4 -25 -4 -30 -1 -39 24 -10 31 4 55 15 26 3 -9 9 -14 14
-11 22 14 200 26 200 14 0 -5 7 -9 15 -9 8 0 15 4 15 9 0 4 19 11 43 14 24 3
51 9 60 13 12 4 17 1 17 -12 0 -12 3 -15 8 -7 4 6 40 13 82 15 41 1 78 7 81
12 11 14 42 -2 35 -19 -4 -11 2 -15 23 -15 19 0 30 6 33 18 4 15 17 19 71 20
50 2 66 -2 71 -13 6 -16 41 -21 50 -7 2 4 1 14 -3 21 -6 9 -66 11 -272 7 -145
-3 -280 -7 -299 -8 -19 -1 -56 2 -82 6 -40 7 -48 6 -48 -7 0 -20 -19 -32 -31
-20 -6 6 -39 8 -74 5 -53 -3 -66 -1 -71 12 -7 18 -35 22 -32 4 2 -6 -5 -14
-14 -16 -11 -2 -18 2 -18 12 0 9 -8 16 -19 16 -14 0 -17 -6 -13 -25 3 -18 0
-25 -12 -25 -9 0 -16 3 -16 8 0 4 -30 5 -66 2 -65 -6 -94 5 -79 30 3 5 -2 10
-14 10 -12 0 -23 -10 -29 -27 -9 -23 -11 -24 -12 -8 -1 11 -2 23 -1 28 0 4 -4
7 -10 7 -7 0 -9 -10 -7 -25 4 -17 1 -25 -8 -25 -8 0 -14 11 -14 25 0 22 -4 25
-38 25 -21 0 -42 -3 -45 -7z m33 -15 c0 -9 3 -9 12 0 19 19 30 14 26 -10 -2
-17 -9 -22 -30 -20 -16 1 -28 4 -28 7 0 3 0 12 0 20 0 8 5 15 10 15 6 0 10 -5
10 -12z m180 -66 c0 -15 2 -15 10 -2 6 10 28 15 74 16 35 1 69 5 76 9 16 10
23 0 15 -24 -6 -19 -21 -26 -52 -22 -7 1 -13 -2 -13 -7 0 -5 -13 -9 -30 -9
-16 0 -30 3 -30 7 0 4 -13 5 -28 2 -22 -3 -30 1 -39 21 -12 25 -7 41 8 31 5
-3 9 -13 9 -22z m247 12 c9 -23 -19 -38 -34 -17 -7 9 -10 20 -7 24 9 15 34 10
41 -7z m-345 -24 c3 -19 0 -30 -8 -30 -6 0 -14 14 -16 30 -3 19 0 30 8 30 6 0
14 -13 16 -30z m37 18 c0 -7 -4 -22 -9 -33 -7 -18 -8 -19 -15 -2 -4 9 -5 24
-1 32 7 18 26 20 25 3z m-69 -27 c0 -15 -7 -19 -34 -19 -28 0 -33 3 -29 19 4
13 14 19 34 19 22 0 29 -5 29 -19z m173 -40 c4 -1 7 -11 6 -23 0 -13 -3 -17
-6 -10 -4 10 -9 9 -19 -5 -13 -17 -15 -17 -29 1 -14 18 -15 18 -15 2 0 -10 -5
-16 -12 -13 -7 2 -21 -2 -30 -11 -16 -14 -18 -13 -18 1 0 8 -3 22 -6 31 -5 13
2 16 35 16 23 0 41 4 41 8 0 5 10 8 23 6 12 -1 25 -3 30 -3z m127 -62 c0 21
17 2 22 -24 6 -29 -18 -36 -25 -7 -3 14 -6 13 -14 -7 l-10 -25 -7 28 c-8 34 1
51 20 35 11 -9 14 -9 14 0z m50 -11 c0 -21 1 -21 13 -3 16 21 37 12 37 -16 0
-14 -7 -19 -28 -19 -22 0 -30 7 -39 30 -9 25 -9 30 3 30 8 0 14 -10 14 -22z
m-120 8 c0 -2 -6 -16 -14 -30 -12 -24 -14 -25 -19 -7 -2 11 0 24 6 30 11 11
27 15 27 7z m235 -16 c0 -22 -39 -19 -43 3 -3 15 1 18 20 15 12 -2 23 -10 23
-18z m-309 -23 c1 -11 -4 -17 -16 -17 -10 0 -25 -3 -34 -6 -11 -4 -16 0 -16
13 0 26 7 32 38 30 15 -2 26 -9 28 -20z m510 -29 c8 -27 -1 -33 -54 -35 -26 0
-75 -4 -109 -7 -52 -5 -63 -3 -63 9 0 8 -1 18 -2 22 -2 4 11 9 27 10 17 1 42
4 57 7 19 4 30 0 37 -12 9 -15 10 -15 11 3 0 17 7 21 45 21 36 1 46 -2 51 -18z
m-367 -10 c0 -7 -4 -22 -8 -33 -8 -19 -8 -19 -15 2 -8 24 -1 43 15 43 5 0 9
-6 8 -12z m36 -25 c5 -17 2 -23 -9 -23 -11 0 -16 10 -16 32 0 34 13 29 25 -9z
m26 15 c1 -18 2 -19 6 -5 5 20 40 19 36 -1 -2 -6 4 -9 12 -6 8 4 15 2 15 -4 0
-5 -16 -12 -36 -14 -35 -4 -54 11 -54 41 0 22 20 10 21 -11z m894 -23 l0 -40
-125 -2 c-69 -1 -125 -2 -125 -3 0 -2 -74 -7 -173 -11 -35 -2 -65 -6 -68 -11
-3 -4 -15 -3 -28 2 -13 5 -26 7 -28 4 -3 -2 -39 -6 -81 -8 -67 -4 -77 -2 -77
12 -1 15 -3 14 -15 -2 -8 -11 -15 -16 -15 -11 0 4 -9 0 -20 -10 -19 -18 -20
-17 -20 6 0 17 -3 20 -9 11 -5 -8 -20 -15 -35 -15 -14 -1 -26 -5 -26 -9 0 -15
-31 -8 -37 8 -3 9 -8 11 -12 6 -3 -6 -15 -12 -26 -14 -14 -2 -19 2 -17 15 2 9
-2 17 -8 17 -5 0 -10 -10 -10 -22 0 -19 -2 -20 -10 -8 -26 40 -15 45 103 46
61 1 125 7 142 14 21 8 31 8 33 1 2 -6 8 -9 13 -5 5 3 27 7 49 9 28 3 42 -1
48 -12 8 -13 11 -13 25 2 9 9 31 17 47 17 17 1 33 4 35 8 3 4 28 6 57 4 28 -2
56 0 62 5 13 11 66 2 66 -10 0 -14 22 -10 34 6 10 13 65 23 153 28 17 1 35 6
39 10 5 4 20 7 34 5 22 -3 25 -8 25 -43z m-1062 8 c6 -34 2 -40 -18 -23 -8 7
-15 8 -15 3 0 -6 -13 -10 -30 -11 -24 0 -30 4 -30 20 0 17 5 20 39 16 28 -2
37 0 34 9 -3 7 -1 13 5 13 5 0 12 -12 15 -27z m9 -78 c5 -26 -16 -36 -25 -12
-4 8 -6 6 -6 -4 -1 -11 -11 -16 -31 -16 -26 0 -30 4 -28 21 2 17 10 21 36 20
21 0 32 5 32 14 0 22 17 4 22 -23z"/>
<path d="M2760 1390 c0 -12 67 -12 95 0 14 6 4 9 -37 9 -33 1 -58 -3 -58 -9z"/>
<path d="M2930 1396 c0 -8 52 -58 56 -54 6 7 -35 58 -47 58 -5 0 -9 -2 -9 -4z"/>
<path d="M2513 1382 c-24 -2 -43 -8 -43 -14 0 -10 66 -8 202 7 21 2 40 0 43
-5 9 -14 22 -12 28 4 5 12 -11 14 -91 13 -53 -1 -116 -3 -139 -5z"/>
<path d="M2885 1359 c4 -16 1 -30 -7 -36 -13 -11 -117 -21 -296 -28 -52 -2
-96 -6 -99 -8 -9 -10 66 -19 100 -14 17 3 77 9 132 12 128 7 165 13 165 27 0
7 5 7 14 -1 12 -10 13 -6 6 24 -5 20 -11 40 -15 43 -4 4 -4 -5 0 -19z"/>
<path d="M2888 1268 c-30 -10 -33 -15 -19 -36 6 -10 10 -8 14 8 5 18 11 21 28
17 13 -4 30 -1 38 6 11 9 15 9 18 0 3 -7 11 -13 20 -13 8 0 13 6 11 13 -6 15
-73 18 -110 5z"/>
<path d="M2574 1232 c-6 -4 -15 -26 -18 -48 -7 -39 -6 -42 20 -47 16 -3 38 -1
50 4 20 7 22 13 17 46 -6 39 -17 53 -43 53 -8 0 -20 -4 -26 -8z m50 -28 c3 -9
6 -25 6 -35 0 -16 -6 -20 -27 -17 -28 3 -40 25 -29 54 7 19 42 18 50 -2z"/>
<path d="M2890 1161 c0 -3 25 -8 55 -9 30 -1 55 2 55 7 0 5 -25 10 -55 10 -30
0 -55 -4 -55 -8z"/>
<path d="M1283 987 c-16 -5 -80 -10 -143 -12 -103 -4 -117 -6 -132 -25 -13
-16 -15 -27 -8 -40 6 -10 10 -32 10 -47 0 -48 21 -67 65 -60 21 3 48 16 60 27
25 24 46 10 24 -16 -9 -12 -9 -23 1 -55 14 -41 14 -41 54 -34 59 9 78 8 87 -7
7 -10 9 -10 10 2 0 10 3 8 9 -5 7 -16 9 -17 9 -3 1 21 7 25 56 33 35 6 38 5
23 -6 -15 -12 -15 -16 -3 -33 8 -11 16 -17 16 -13 1 4 3 12 4 17 1 6 3 15 4
20 0 6 9 10 19 10 14 0 15 -2 2 -10 -13 -9 -13 -11 0 -20 13 -8 12 -10 -2 -10
-10 0 -18 -4 -18 -10 0 -10 273 -6 289 4 5 3 87 8 183 11 95 3 195 10 221 15
27 5 87 9 135 9 106 -1 140 10 148 50 8 36 34 47 131 55 39 3 78 9 87 12 22 9
31 50 17 81 l-12 26 -112 -8 c-142 -9 -185 -12 -273 -20 -71 -6 -72 -6 -93 23
-22 31 -59 45 -84 30 -9 -4 -48 -10 -89 -13 -104 -7 -150 -15 -176 -31 -17
-11 -27 -12 -42 -4 -26 14 -139 19 -163 8 -30 -15 -146 -18 -141 -4 3 7 1 23
-4 37 -9 22 -14 24 -76 24 -36 0 -78 -4 -93 -8z m92 -59 c-35 -4 -64 -3 -69 2
-6 6 -15 10 -20 10 -6 0 -4 -5 4 -10 11 -7 6 -10 -22 -10 -20 0 -43 -3 -52 -6
-11 -4 -16 0 -17 12 -1 17 -2 17 -6 2 -3 -13 -15 -18 -39 -18 -19 0 -37 -1
-41 -2 -4 -2 -10 9 -14 25 -4 15 -3 27 2 27 5 0 9 -9 9 -20 0 -11 5 -20 10
-20 6 0 10 7 10 16 0 10 6 14 14 11 8 -3 17 -3 20 1 4 3 35 8 69 10 93 5 97 6
97 15 0 4 5 5 11 2 21 -14 59 -12 71 3 11 13 14 11 18 -14 5 -29 5 -29 -55
-36z m720 32 c3 -5 12 -7 20 -3 9 3 16 -1 17 -11 0 -9 1 -22 2 -28 1 -9 -14
-14 -42 -14 -24 -1 -49 -7 -55 -14 -12 -13 -7 -13 161 6 59 7 62 6 62 -15 0
-11 5 -21 10 -21 6 0 8 11 4 25 -6 24 -5 25 44 25 45 0 50 -2 56 -26 8 -30 20
-24 21 9 0 20 6 22 55 25 30 1 79 7 109 12 62 11 73 4 69 -45 -4 -39 -38 -49
-38 -11 0 14 -4 28 -10 31 -6 4 -10 -6 -10 -23 l0 -29 -70 -2 c-39 -1 -79 -7
-90 -13 -14 -9 -22 -9 -33 0 -13 11 -128 9 -147 -3 -5 -3 -12 5 -16 17 l-7 23
-8 -23 c-9 -23 -43 -30 -55 -11 -4 7 -9 7 -13 2 -3 -6 -22 -12 -42 -16 -38 -6
-60 10 -73 50 -6 18 -15 20 -76 19 -38 -1 -70 -4 -70 -7 0 -3 -13 -6 -30 -7
-25 -1 -30 3 -30 24 0 21 5 24 38 26 48 1 55 2 67 9 6 3 43 4 83 3 54 -1 72 2
72 13 0 15 16 18 25 3z m-1011 -18 c4 -2 2 -8 -5 -13 -10 -6 -11 -9 -1 -9 6 0
12 -5 12 -11 0 -6 -9 -8 -21 -4 -15 5 -19 4 -15 -4 11 -17 -20 -13 -34 4 -19
23 -5 45 27 43 15 -1 32 -4 37 -6z m552 -47 c0 -19 -3 -35 -7 -35 -10 0 -21
49 -14 60 12 20 21 9 21 -25z m65 13 c1 -17 2 -19 6 -5 7 26 35 22 31 -5 -2
-19 -10 -23 -45 -25 -24 -1 -45 3 -49 8 -7 13 15 41 27 33 5 -3 9 0 9 5 0 22
20 10 21 -11z m-233 -35 c0 -24 -2 -25 -13 -10 -15 21 -26 22 -19 2 4 -8 1
-15 -5 -15 -6 0 -11 7 -11 15 0 9 -6 12 -16 8 -13 -5 -13 -8 -2 -15 9 -7 7 -8
-9 -5 -12 3 -32 -2 -44 -11 -16 -11 -26 -12 -39 -5 -9 6 -28 9 -43 6 -20 -4
-27 -1 -27 11 0 22 -17 21 -23 -1 -4 -14 -5 -13 -6 3 -1 19 5 22 46 26 38 3
47 0 51 -15 6 -23 38 -17 34 6 -2 10 4 17 13 17 9 0 14 -4 10 -9 -3 -5 8 -3
25 5 16 9 34 13 39 10 5 -4 12 -2 16 4 10 17 23 2 23 -27z m33 15 c1 -17 2
-19 6 -5 2 9 12 18 21 18 9 1 29 3 45 5 15 1 28 -1 29 -7 4 -26 2 -34 -7 -34
-5 0 -16 -4 -24 -9 -8 -5 -16 -4 -22 5 -5 8 -9 10 -10 4 0 -5 -4 -1 -9 10 -7
17 -9 17 -9 3 -1 -29 -36 -22 -39 7 -1 14 3 25 8 25 6 0 11 -10 11 -22z m-435
-17 c-3 -5 2 -8 12 -7 10 0 17 -6 17 -18 0 -14 -9 -20 -32 -22 -26 -3 -33 0
-33 14 0 19 18 42 33 42 4 0 6 -4 3 -9z m904 -8 c1 -17 1 -17 11 0 15 25 26
21 31 -13 5 -30 -5 -49 -16 -32 -4 7 -51 8 -51 1 0 -1 -29 -3 -65 -5 -36 -2
-66 -4 -67 -5 -2 -1 -6 -2 -10 -3 -5 -1 -14 -5 -22 -10 -7 -5 -16 -5 -20 0 -5
8 -25 10 -43 4 -5 -1 -11 -3 -15 -4 -5 -1 -14 -5 -22 -10 -8 -5 -16 -4 -21 4
-4 6 -11 11 -16 9 -63 -17 -76 -17 -81 2 -3 10 -10 19 -15 19 -5 0 -6 -9 -3
-20 4 -11 2 -20 -4 -20 -6 0 -12 8 -12 18 -1 15 -2 15 -6 1 -6 -26 -68 -23
-70 3 -1 13 4 18 15 17 9 -1 33 1 52 5 46 10 56 8 52 -10 -2 -8 4 -14 13 -14
12 0 15 6 10 19 -3 11 -1 22 5 26 6 3 10 -3 10 -17 0 -17 2 -20 9 -9 10 16
101 26 101 11 0 -16 27 -11 34 6 3 9 12 14 19 11 6 -2 29 2 49 9 21 7 40 9 43
4 7 -12 79 -3 83 10 6 17 22 11 22 -7z m410 -63 c0 -36 -32 -57 -64 -42 -12 5
-42 6 -67 3 -55 -9 -69 -5 -69 19 0 27 17 34 92 35 38 1 73 6 80 13 16 16 28
5 28 -28z m-1115 10 c4 -6 11 -8 16 -5 5 4 9 -2 10 -12 0 -14 2 -15 7 -3 4 8
17 16 30 18 18 3 22 -2 22 -22 0 -30 -18 -44 -26 -21 -4 10 -10 12 -18 7 -6
-5 -29 -9 -52 -9 -22 0 -46 -3 -51 -6 -6 -4 -16 0 -24 9 -20 24 9 48 44 35 21
-8 25 -7 20 4 -6 17 12 21 22 5z m155 -19 c0 -14 -5 -18 -20 -14 -11 3 -20 12
-20 19 0 8 9 14 20 14 13 0 20 -7 20 -19z m700 -1 c0 -12 5 -17 14 -14 19 7
31 -15 17 -29 -9 -9 -14 -9 -20 2 -5 8 -11 9 -15 3 -3 -5 -17 -7 -31 -4 -15 2
-25 0 -25 -7 0 -6 -7 -11 -15 -11 -8 0 -15 5 -15 10 0 6 -16 8 -42 4 -34 -6
-44 -4 -55 12 -14 19 -14 19 -11 0 2 -16 -3 -20 -32 -21 -19 -1 -45 -5 -58 -9
-17 -6 -24 -3 -31 15 l-8 23 -12 -22 c-8 -16 -21 -22 -44 -22 -18 0 -38 -5
-45 -12 -9 -9 -15 -9 -24 0 -9 9 -8 12 5 12 9 0 17 7 17 16 0 35 45 51 67 24
9 -10 12 -11 13 -2 0 6 7 12 15 12 8 0 15 5 15 10 0 24 20 7 21 -17 1 -23 2
-24 6 -6 2 12 12 22 21 22 19 0 117 9 117 11 0 0 26 2 58 4 44 2 60 -1 68 -13
8 -13 9 -11 4 7 -5 16 -2 22 9 22 9 0 16 -8 16 -20z m-558 -75 c7 -7 9 -3 6
11 -3 12 -2 28 3 35 6 10 9 11 9 2 0 -14 41 -13 51 0 3 5 14 1 23 -9 12 -11
14 -20 7 -27 -15 -15 -61 -18 -62 -4 0 7 -4 2 -9 -10 -6 -15 -15 -20 -29 -16
-23 6 -38 45 -24 65 6 9 9 6 11 -12 2 -14 8 -29 14 -35z m-82 25 c0 -11 5 -20
10 -20 6 0 10 7 10 15 0 8 5 15 10 15 9 0 11 -8 10 -37 0 -5 -11 -9 -24 -10
-19 -1 -25 4 -28 28 -3 16 -1 29 4 29 4 0 8 -9 8 -20z"/>
<path d="M1210 682 c0 -17 5 -20 27 -16 15 3 31 8 36 11 5 3 12 1 16 -4 3 -5
16 -4 31 4 23 11 20 12 -30 10 -30 -2 -61 1 -67 6 -10 7 -13 4 -13 -11z"/>
<path d="M2045 673 c-22 -8 -70 -16 -107 -17 -42 -3 -78 -10 -94 -21 -22 -14
-28 -14 -47 -3 -15 9 -36 12 -65 8 -23 -4 -59 -5 -79 -3 -20 1 -41 -2 -47 -7
-6 -4 -34 -10 -62 -13 -27 -2 -59 -9 -70 -14 -10 -6 -24 -9 -30 -6 -6 2 -10
-7 -9 -19 1 -17 8 -23 26 -23 17 0 23 5 21 18 -2 11 4 17 15 18 10 0 39 2 66
4 40 4 47 2 47 -14 0 -22 -39 -33 -65 -18 -13 7 -16 6 -10 -3 5 -8 3 -11 -6
-8 -8 3 -29 -1 -47 -8 -30 -12 -35 -11 -53 7 -13 13 -18 27 -13 41 3 11 2 18
-2 15 -17 -10 -139 -20 -234 -19 -82 1 -98 -2 -117 -20 -18 -17 -20 -24 -11
-50 10 -29 13 -30 56 -25 30 3 52 12 63 26 13 16 18 18 22 7 3 -8 3 -23 0 -35
-6 -24 23 -75 38 -66 5 4 13 -4 18 -17 7 -16 10 -18 10 -6 1 17 19 34 27 25 7
-7 -7 -58 -15 -53 -3 2 -15 -3 -26 -11 -19 -15 -19 -15 5 -8 14 4 32 14 41 21
14 12 19 11 43 -7 14 -11 24 -25 21 -30 -4 -5 -1 -9 4 -9 6 0 11 5 11 10 0 6
16 10 35 10 19 0 35 4 35 10 0 6 9 6 23 1 12 -5 33 -6 47 -3 54 10 65 7 68
-15 3 -18 -2 -23 -17 -23 -12 0 -21 6 -21 13 0 9 -2 9 -8 -1 -12 -17 -82 -26
-82 -9 0 8 -4 7 -10 -3 -8 -12 -13 -13 -30 -2 -16 10 -20 10 -20 -1 0 -14 -4
-16 -56 -21 -17 -1 -35 -5 -40 -8 -5 -3 -21 -8 -36 -12 -30 -7 -45 -40 -28
-61 6 -7 10 -19 9 -27 -4 -29 2 -49 11 -43 7 4 8 11 1 18 -13 17 12 40 28 24
8 -8 11 -8 11 1 0 7 7 12 16 12 13 0 15 -7 11 -29 -6 -27 -3 -29 28 -35 30 -6
35 -11 35 -36 0 -34 23 -50 60 -43 14 3 30 6 37 7 7 1 15 4 18 7 3 3 43 4 90
2 48 -3 109 1 138 8 29 6 102 13 164 14 87 1 115 5 127 18 12 11 28 15 54 11
54 -6 67 -6 172 0 52 4 119 8 148 10 60 3 100 32 100 71 0 39 -30 58 -80 51
-24 -3 -81 -9 -128 -12 -47 -3 -89 -10 -95 -15 -5 -5 -26 -9 -46 -9 -21 0 -41
-5 -45 -11 -3 -6 -15 -9 -25 -6 -20 5 -26 -7 -9 -18 18 -11 12 -47 -7 -43 -11
2 -17 12 -16 24 3 27 -46 48 -95 40 -51 -7 -149 -23 -194 -32 -37 -6 -38 -6
-38 25 0 17 3 31 8 32 4 0 16 2 27 4 50 7 184 17 252 19 66 2 79 6 95 25 23
30 23 53 -2 76 -26 23 -122 21 -197 -4 -51 -17 -112 -17 -114 0 -5 29 -1 34
26 36 31 2 66 6 145 17 25 3 71 7 103 10 62 4 97 25 97 57 0 27 15 31 104 34
181 6 246 24 246 70 0 13 -8 33 -18 46 -19 22 -21 22 -103 11 -46 -7 -111 -12
-143 -12 -53 0 -62 3 -85 29 -33 37 -56 42 -106 24z m78 -25 c13 3 17 -3 17
-23 0 -20 -4 -26 -15 -22 -8 4 -17 2 -20 -3 -12 -19 -25 -10 -26 18 -1 21 -3
23 -6 6 -5 -24 -29 -34 -85 -34 -20 0 -40 -5 -44 -11 -4 -7 -10 -7 -16 -1 -6
6 -17 8 -25 5 -8 -3 -19 0 -24 8 -6 10 -9 10 -9 2 0 -7 -4 -13 -10 -13 -5 0
-10 11 -10 23 0 23 4 24 97 30 57 4 105 12 117 21 16 11 23 12 31 2 6 -6 18
-10 28 -8z m-381 -48 c3 -20 0 -30 -9 -30 -7 0 -13 6 -13 13 0 8 -3 9 -8 1 -4
-6 -20 -14 -35 -18 -26 -6 -28 -4 -25 16 2 19 9 23 36 22 20 0 32 5 32 13 0
26 18 12 22 -17z m35 1 c-11 -31 -27 -32 -27 -2 0 21 8 31 26 31 9 0 10 -7 1
-29z m703 -20 c0 -28 -14 -36 -60 -37 -25 -1 -71 -3 -103 -6 -32 -2 -60 -1
-63 4 -3 5 -17 2 -30 -7 -22 -14 -25 -14 -31 0 -3 9 -9 12 -12 7 -3 -5 -25
-13 -48 -17 -37 -6 -43 -4 -43 11 0 16 -1 16 -12 2 -7 -9 -23 -19 -35 -23 -18
-5 -23 -2 -23 12 0 11 -3 14 -8 7 -10 -16 -48 -26 -105 -29 -37 -2 -47 0 -43
11 3 7 1 16 -4 19 -6 4 -10 -3 -10 -14 0 -25 -39 -38 -68 -22 -13 7 -23 7 -27
2 -3 -6 -13 -9 -23 -9 -9 0 -43 -2 -74 -5 -48 -5 -59 -4 -67 11 -10 16 -10 16
-11 0 0 -10 -4 -18 -10 -18 -18 0 -11 40 8 41 9 0 34 2 55 5 26 3 37 1 37 -8
0 -10 2 -10 9 0 7 12 24 16 86 24 14 2 19 -2 17 -14 -2 -13 4 -18 22 -18 21 0
25 4 23 22 -2 17 4 23 26 24 15 2 27 -2 27 -7 0 -6 4 -8 9 -5 5 3 28 8 52 10
52 6 131 16 179 22 19 3 43 5 53 5 9 0 17 4 17 10 0 23 20 6 21 -18 0 -26 1
-26 9 -7 7 18 19 22 94 27 48 3 99 12 114 20 23 12 29 12 40 -2 6 -8 12 -22
12 -30z m-840 2 c0 -28 -3 -34 -10 -23 -13 20 -13 60 0 60 6 0 10 -17 10 -37z
m-475 -30 c-8 -35 -14 -41 -24 -24 -7 10 -9 10 -14 -1 -2 -8 -18 -14 -33 -13
-35 0 -44 29 -15 45 12 6 21 7 21 1 0 -13 34 -8 43 7 15 23 29 13 22 -15z
m164 8 c1 18 62 22 73 5 14 -21 8 -28 -24 -26 -18 1 -37 1 -43 0 -5 -1 -13 -2
-17 -1 -5 0 -8 -4 -8 -10 0 -7 -11 -4 -26 6 -15 9 -23 12 -20 6 4 -6 0 -11 -8
-11 -9 0 -16 7 -16 16 0 8 -5 12 -10 9 -6 -4 -8 -11 -5 -16 4 -5 1 -9 -4 -9
-6 0 -11 9 -11 19 0 17 8 20 53 23 39 2 54 -1 59 -12 6 -13 7 -13 7 1z m153
-61 c3 -20 0 -30 -9 -30 -8 0 -13 12 -13 30 0 17 4 30 9 30 5 0 11 -13 13 -30z
m-116 5 c-10 -7 -15 -18 -12 -23 7 -12 -22 -25 -35 -16 -19 11 -8 30 24 41 44
14 44 14 23 -2z m-105 -13 c9 2 14 -6 14 -21 0 -32 -25 -40 -26 -9 -1 17 -3
18 -6 6 -6 -24 -19 -23 -26 1 -6 22 13 47 23 30 4 -5 13 -9 21 -7z m153 6 c-6
-10 -4 -10 7 0 19 17 29 15 29 -7 0 -12 -9 -20 -27 -24 -16 -3 -31 -3 -35 -1
-11 7 4 44 19 44 8 0 11 -5 7 -12z m586 -13 c4 3 33 6 63 8 49 3 56 1 61 -17
3 -11 4 -22 2 -24 -2 -1 -32 -5 -66 -7 -34 -3 -66 -7 -71 -11 -5 -3 -13 5 -19
18 l-9 23 -7 -22 c-3 -13 -10 -21 -14 -18 -5 3 -11 1 -15 -5 -11 -18 -25 -11
-26 13 -1 16 -2 18 -6 5 -4 -17 -20 -23 -50 -19 -7 1 -13 -3 -13 -9 0 -17 -28
-11 -39 8 -6 9 -11 11 -11 5 0 -7 -9 -13 -20 -13 -15 0 -20 7 -20 25 0 31 20
33 21 3 1 -17 2 -19 6 -5 2 9 14 18 26 19 43 3 72 6 77 8 3 1 25 4 49 5 24 2
48 8 55 15 7 7 12 7 14 0 2 -5 7 -8 12 -5z m-341 -56 c-12 -23 -12 -23 -19 -4
-9 23 8 51 23 36 5 -5 4 -18 -4 -32z m67 14 c-6 -40 -6 -40 -17 -15 -9 25 -5
42 12 42 5 0 8 -12 5 -27z m-254 -8 c9 4 21 -3 32 -19 19 -30 21 -40 4 -30 -7
4 -26 7 -43 6 -28 -2 -31 1 -29 20 1 13 3 28 3 33 1 6 5 4 9 -3 5 -7 15 -10
24 -7z m125 -18 c-3 -8 -18 -14 -34 -15 -22 0 -29 4 -30 20 -2 15 3 19 18 15
10 -3 22 -1 25 5 9 14 28 -7 21 -25z m-224 9 c22 8 34 -21 17 -41 -18 -21 -30
-18 -31 8 0 21 -1 21 -8 2 -8 -19 -8 -19 -19 1 -8 16 -8 24 0 32 8 8 14 8 18
2 4 -6 14 -8 23 -4z m263 -66 c-1 -36 -7 -38 -22 -5 -9 18 -9 25 0 29 21 8 23
6 22 -24z m110 -2 c1 -12 -4 -18 -16 -18 -10 0 -25 -3 -34 -6 -11 -4 -16 -1
-16 10 0 22 -20 20 -21 -1 0 -15 -2 -15 -8 2 -13 30 -4 36 47 33 34 -2 46 -7
48 -20z m330 -23 c7 -28 -5 -69 -13 -47 -4 10 -9 9 -24 -4 -18 -16 -19 -16
-20 12 -1 17 -3 22 -6 12 -6 -24 -19 -23 -26 2 -3 10 1 24 9 31 11 9 14 9 14
-1 0 -7 7 -10 15 -6 8 3 19 -3 25 -12 8 -13 9 -11 4 11 -8 34 13 37 22 2z
m-101 -25 c2 -16 -1 -30 -6 -30 -5 0 -9 6 -9 13 0 9 -2 9 -8 0 -4 -7 -42 -14
-86 -17 -43 -3 -82 -8 -86 -11 -5 -3 -13 3 -19 12 -10 17 -10 17 -11 -2 -1
-20 -1 -20 -10 0 -7 17 -9 17 -9 3 -1 -11 -9 -18 -22 -18 -11 0 -18 4 -14 9 3
5 1 12 -5 16 -6 3 -14 -4 -19 -17 -10 -23 -10 -22 -10 5 -1 15 3 27 8 27 5 0
16 3 25 6 12 5 16 0 17 -17 l0 -24 10 23 c5 13 13 21 18 17 5 -3 12 -1 16 5 9
15 27 1 21 -16 -3 -8 -1 -14 4 -14 6 0 10 7 10 15 0 8 7 15 16 15 8 0 13 -4 9
-9 -3 -6 4 -9 15 -8 11 1 20 8 20 15 0 10 7 12 21 9 12 -3 22 0 26 9 4 11 9
12 18 4 9 -8 15 -8 20 0 3 6 11 8 16 5 5 -4 9 -1 9 6 0 25 13 -1 15 -31z
m-327 -46 c-5 -25 -28 -30 -28 -5 0 25 -17 28 -23 4 -4 -14 -5 -13 -6 4 -1 15
6 23 22 25 28 5 40 -5 35 -28z m-208 -4 c0 -33 -15 -41 -22 -12 -6 21 1 42 13
42 5 0 9 -13 9 -30z m39 3 c1 11 8 18 19 16 9 -1 19 0 22 1 3 1 17 3 33 5 21
3 27 0 27 -16 0 -10 -7 -19 -15 -19 -8 0 -15 -4 -15 -10 0 -5 -7 -10 -15 -10
-8 0 -15 4 -15 8 0 4 -15 6 -34 4 -30 -3 -33 -2 -31 20 4 34 6 36 15 8 6 -18
8 -20 9 -7z m-103 1 c-3 -9 -6 -20 -6 -25 0 -5 -4 -9 -10 -9 -11 0 -14 33 -3
43 12 13 25 7 19 -9z m-66 -26 c0 -15 -5 -19 -20 -15 -11 3 -23 1 -26 -4 -10
-17 -21 -9 -21 15 0 21 4 24 33 24 27 0 34 -4 34 -20z m1148 -43 c-2 -11 -10
-21 -18 -21 -8 -1 -17 -3 -20 -4 -3 -1 -27 -3 -55 -4 -27 -2 -73 -6 -100 -10
-49 -7 -50 -7 -62 23 -12 33 2 55 18 30 8 -12 11 -12 20 1 8 11 12 12 16 2 2
-6 8 -10 11 -8 4 2 38 7 77 10 49 5 72 11 79 23 8 15 10 15 23 -3 7 -10 12
-28 11 -39z m-843 13 c6 -20 8 -21 12 -5 6 23 28 16 28 -8 0 -15 -9 -20 -46
-22 -40 -2 -45 0 -44 17 2 24 15 39 15 17 0 -9 5 -19 11 -23 9 -5 10 1 5 20
-8 32 9 35 19 4z m-131 -22 c-7 -29 -25 -36 -21 -8 3 21 17 45 23 39 3 -3 2
-16 -2 -31z m66 3 c0 -17 -4 -28 -10 -24 -5 3 -10 17 -10 31 0 13 5 24 10 24
6 0 10 -14 10 -31z m-102 -9 c-1 -34 -13 -32 -20 5 -4 16 -1 25 8 25 8 0 12
-12 12 -30z m-28 -12 c0 -15 -5 -19 -20 -15 -11 3 -23 1 -26 -4 -8 -14 -23 -1
-20 18 3 20 26 30 26 11 0 -8 4 -7 11 5 13 21 29 13 29 -15z m748 16 c5 -9 13
-15 18 -14 5 1 10 -3 12 -9 2 -6 -6 -12 -17 -12 -70 -6 -76 -4 -79 18 -2 16 3
23 20 26 13 2 26 5 30 6 4 0 11 -6 16 -15z m-240 -29 c0 -19 -4 -32 -9 -29 -5
3 -9 18 -9 35 0 16 4 29 9 29 5 0 9 -16 9 -35z m42 25 c0 -5 7 -7 15 -4 20 8
31 -22 15 -41 -18 -21 -30 -18 -31 8 0 21 -1 21 -9 2 -7 -18 -8 -19 -15 -2 -4
9 -5 24 -1 32 6 17 26 21 26 5z m-140 -30 c0 -11 0 -23 1 -27 0 -4 -5 -9 -12
-12 -8 -2 -10 2 -6 13 4 10 1 16 -8 16 -8 0 -15 -6 -15 -13 0 -16 -42 -20 -52
-4 -12 18 -10 29 5 24 6 -2 26 2 42 9 41 18 45 17 45 -6z m68 -9 c3 -19 0 -22
-25 -19 -20 2 -29 9 -31 25 -3 18 1 21 25 19 20 -2 29 -9 31 -25z m-299 -3 c0
-7 -4 -22 -8 -32 -7 -19 -8 -18 -14 4 -3 13 -4 27 -1 32 8 12 24 10 23 -4z
m33 -22 c1 -10 -2 -21 -8 -23 -6 -2 -11 10 -12 28 -1 33 14 29 20 -5z m29 12
l0 -23 10 23 c10 26 29 21 29 -9 0 -14 -7 -19 -25 -19 -14 0 -25 4 -25 9 0 5
-3 16 -6 25 -3 9 -1 16 5 16 6 0 11 -10 12 -22z m-169 -18 c5 -30 -5 -40 -18
-19 -4 7 -9 7 -13 2 -3 -6 -18 -13 -33 -17 -25 -6 -28 -4 -28 19 0 23 3 25 35
22 25 -3 35 0 35 9 0 27 18 14 22 -16z m35 0 c-11 -28 -12 -29 -19 -9 -9 24
-3 39 17 39 11 0 11 -6 2 -30z"/>
<path d="M2371 99 c-13 -5 -64 -16 -114 -24 -52 -8 -98 -22 -108 -31 -17 -15
-20 -15 -44 0 -19 12 -37 15 -68 11 -23 -3 -62 -8 -87 -10 -78 -7 -123 -20
-127 -35 -4 -13 -3 -13 7 0 8 11 13 12 16 3 4 -9 13 -9 31 -2 18 6 30 6 39 -2
11 -9 14 -8 14 5 0 9 5 16 11 16 6 0 9 -7 5 -15 -3 -8 -1 -15 4 -15 6 0 10 5
10 10 0 15 57 12 64 -2 4 -7 4 -3 2 9 -3 16 1 23 11 23 10 0 14 -6 10 -20 -3
-11 -1 -20 3 -20 5 0 10 10 12 22 2 12 9 23 17 26 11 4 12 -2 7 -23 -6 -24 -5
-27 7 -16 10 8 17 9 22 1 9 -15 35 -12 35 4 0 20 8 24 66 31 101 13 158 25
166 38 6 9 11 8 18 -5 6 -9 17 -15 25 -12 14 6 15 2 15 -33 0 -5 -6 -9 -13 -9
-6 -1 -14 -3 -17 -4 -3 -1 -39 -4 -80 -6 -113 -8 -99 -16 22 -13 l106 3 5 29
c2 15 -1 34 -7 42 -17 22 -58 34 -85 24z"/>
</g>
</svg>
