<svg width="222" height="42" viewBox="0 0 222 42" fill="none" xmlns="http://www.w3.org/2000/svg">
  <g clip-path="url(#a)">
    <path d="M95.48 2.03h-.59V39.4h.59V2.03Z" fill="#7F7F7F"/>
    <path fill-rule="evenodd" clip-rule="evenodd" d="M35.1 24.65a.26.26 0 0 1-.1.1ZM36.08 17.05c.11 0 .2-.09.2-.2a.2.2 0 0 0-.2-.2.2.2 0 0 0-.2.2c0 .11.09.2.2.2Z" fill="#231F20"/>
    <mask id="b" style="mask-type:alpha" maskUnits="userSpaceOnUse" x="2" y="0" width="81" height="42">
      <path d="M2.05 41.55h80.23V.28H2.05v41.27Z" fill="#fff"/>
    </mask>
    <g mask="url(#b)" fill-rule="evenodd" clip-rule="evenodd" fill="#231F20">
      <path d="M43.08 12.6h2.23V8.67h-2.23v3.93Zm2.23 1.86c-.03.42-.18.78-.47.98l-1.76 1.04V12.8h2.23v1.66Zm-4.5-1.86h2.07V8.67h-2.06v3.93Zm2.07 4-.81.48h-.01a.34.34 0 0 1-.43 0l-.81-.48v-3.8h2.06v3.8Zm-2.9-4h.64v-1.44h-.64v1.44Zm.64 3.88-1.76-1.04c-.3-.2-.44-.56-.47-.98V12.8h2.23v3.68Zm-2.23-6.3h.77v-1.5h-.77v1.5Zm.96-.94.09-.1-.06-.1.12.02.07-.13.07.13.12-.02-.05.1.09.1-.12.02v.13l-.1-.08-.12.08v-.13l-.11-.02Zm.55 1.58c-.01-.03-.06-.05-.08-.05-.07 0-.1.12-.16.12-.04 0-.07 0-.07-.04s.09-.07.12-.1c-.47 0-.48.21-.56.21-.12 0 .1-.23.17-.3-.1 0-.15-.13-.25-.19.05-.07.07-.04.14.01 0-.05.03-.1.14-.1.22 0 .16.2.2.2.03 0-.01-.2.13-.2.21 0 .48.53.24.53-.1 0-.02-.07-.02-.09Zm-.52 1.16.12.01.07-.12.07.12.12-.01-.05.1.09.1-.12.02v.13l-.1-.09-.12.09v-.13l-.11-.02.09-.1-.06-.1Zm-.87-1.46.12.01.07-.13.07.13.12-.01-.05.1.09.1-.12.02v.12l-.1-.08-.12.08v-.12l-.11-.03.09-.09-.06-.1Zm-.12 2.08h.77v-1.44h-.77v1.44Zm1.77-1.89.09-.09-.06-.1.12.01.07-.13.07.13.12-.01-.05.1.09.1-.12.02v.12l-.1-.08-.12.08v-.12l-.11-.03Zm-.18-.52h.64V8.67h-.64v1.52Zm5.54-1.71h-7.34v5.9c0 .58.25 1.07.58 1.23l2.82 1.68c.07.07.16.11.26.11s.17-.03.23-.08l2.87-1.71c.33-.16.58-.65.58-1.22V8.48Z"/>
      <path d="M40.5 14.15c-.01-.02-.28.1-.2.08 0-.08.15-.24.22-.3-.01-.1-.13 0-.26.06.42-.6.15-.35-.08-.31.37-.4.28-.4 0-.27.22-.17.26-.37.23-.43-.2.27-.39.22-.39.47 0 .17-.06.44-.14.53-.11.12-.03-.44-.32-.44-.09 0-.3 0-.37.1.06 0 .15.15.15.21s.05.22-.05.22-.21-.2-.21-.3v-.22c0-.24-.4-.57-.55-.57 0 .17.22.2.22.42-.1 0-.23-.17-.23-.07s.14.13.14.22c0 .1-.16-.03-.16.06 0 .1.09.08.11.16-.06-.02-.12 0-.13.02-.01.03.02.07.07.1-.03.02-.05.07-.05.2 0 .47.3.69.51.69.16 0 .13-.11.15-.16 0 .08.08-.04.08.1s-.15.08-.15.2c0 .17.24 0 .24.18 0 .23-.03.22-.03.3 0 .06.25-.08.23-.1.06.02.06.2.17.19.07 0 .09-.18.14-.2-.03.02.22.17.22.1 0-.22-.08-.13-.08-.28 0-.14.3-.11.25-.18-.04-.06-.07-.03-.1-.13 0 .02-.24-.34.05-.16.3.2.34-.45.32-.49ZM48.34 15.7c.13 0 .24-.1.24-.22 0-.11-.11-.2-.24-.2-.14 0-.25.09-.25.2 0 .12.11.22.25.22ZM47.36 16.28c.13 0 .24-.1.24-.22 0-.11-.1-.2-.24-.2-.14 0-.24.09-.24.2 0 .12.1.22.24.22ZM35.75 17.6c.13 0 .24-.09.24-.2 0-.12-.1-.22-.24-.22-.13 0-.24.1-.24.22 0 .11.1.2.24.2ZM36.5 17.67c.14 0 .24-.1.24-.2 0-.13-.1-.22-.24-.22-.13 0-.24.1-.24.21 0 .12.1.21.24.21ZM57.4 7.58c.36.43.44 1.1.18 1.6-.14-.02-.12-.2-.14-.3-.26-.47-.46-1.08-.23-1.62.16.03.1.23.19.32ZM26.74 8.16c-.08.3-.08.73 0 1.01-.07.07-.05-.06-.12-.05-.5-.36-.27-1.06-.4-1.56.03-.04.1-.06.13-.03.23.15.34.37.39.63ZM58.5 8.2c.08.14-.06.28-.17.35-.11.02-.24-.04-.32-.15-.03-.14.04-.27.16-.33.13-.01.25.01.33.13ZM25.96 8.76c-.03.12-.07.24-.17.29-.08 0-.2 0-.24-.07-.08-.06-.1-.18-.05-.27.05-.09.15-.1.24-.11.09.03.18.06.22.16ZM59 8.98c.02.08.02.13 0 .2-.09.12-.22.18-.35.12-.09-.05-.11-.14-.14-.21.03-.1.13-.2.22-.24.12 0 .2.07.27.13ZM58.27 9c.1.05.03.17.01.25-.06.07-.15.17-.27.13-.06-.06-.14-.06-.16-.15 0-.13.05-.26.18-.3.1-.03.16.03.24.07ZM57.34 9.19c0 .14 0 .32-.16.34-.15.06-.25-.07-.3-.18a.3.3 0 0 1 .2-.3c.1 0 .2.06.26.14ZM27.35 9.25c.04.13-.09.2-.16.27-.1.03-.2-.05-.26-.14-.09-.09.03-.17.05-.24.13-.12.32-.03.37.11ZM26.58 9.3c0 .1-.05.2-.14.24-.1.03-.2-.04-.25-.12-.07-.13.01-.25.11-.3.14-.05.23.08.28.17ZM54.24 9.34c.12.27.23.6.25.93-.05.24.04.56-.14.73-.18-.06-.2-.28-.3-.4-.24-.45-.03-.98.05-1.41.1-.04.1.09.14.15ZM25.98 9.5c.04.15-.07.23-.16.32-.16.04-.26-.08-.32-.18a.32.32 0 0 1 .16-.31c.13-.01.26.05.32.17ZM56.26 9.87c.17.37.18.82.06 1.23l-.07.07c-.18-.35-.44-.67-.53-1.04 0-.27.05-.52.16-.74.09-.06.14.02.18.1 0 .13.07.3.2.38ZM57.87 9.64c0 .13-.06.27-.19.3-.13.03-.25 0-.3-.15-.03-.13.05-.24.15-.3.14-.08.28.05.34.15ZM26.6 10.04c0 .1-.1.21-.2.24-.1.08-.17-.05-.26-.09-.04-.1-.07-.2 0-.3.04-.07.12-.07.2-.1.12.07.23.12.26.25ZM27.16 9.97c.05.13-.09.2-.14.26-.15.05-.23-.07-.3-.15-.02-.13.06-.21.15-.29.15-.04.23.07.3.18ZM58.23 9.93c-.01.17-.27.34-.3.5-.13.35-.44.61-.79.72-.07.07-.18.16-.3.17-.02-.26.21-.49.35-.72a1.9 1.9 0 0 1 1.04-.67ZM26.34 10.47c.2.22.3.41.53.6 0 .06-.03.14-.1.14-.62-.04-1.04-.69-1.35-1.14.04-.14.2-.02.3-.03.21.16.45.21.62.43ZM58.41 10.65c-.02.56-.3 1.12-.8 1.4-.13.04-.29.18-.43.1.27-.56.68-1 1.13-1.5h.1ZM55.95 11.03c.04.19-.06.3-.22.37-.14.01-.23-.1-.3-.2a.27.27 0 0 1 .19-.29c.04-.04.1-.04.15-.04.08.03.12.1.18.16ZM25.64 11.14c.24.17.46.4.69.6-.17.12-.37.02-.57.02-.43-.16-.73-.53-1.17-.66 0-.14.18-.09.26-.12.29-.03.52.1.79.16Z"/>
      <path d="M39.35 7.34c-.71-.29-1.19.46-1.92.37-.09.05-.06.14-.11.2-.04.04-.1.02-.14 0-.04-.32-.14-.6-.18-.9-.08-.12-.04-.3-.1-.43-.41-1.12 1-.27 1.28-.93.24-.56-.48-.63-.7-1.03v-.16c-.2-.2-.42-.27-.55-.54.1-.32.13-.67.04-1-.01-.07-.06-.17-.18-.13l-.65.92c-.24-.18-.47-.4-.76-.56-.19-.03-.37-.22-.58-.14-.04.07 0 .14.03.19.02.5.27.9.63 1.26l.04.2c-.23.52-.17 1.12-.23 1.69a9.41 9.41 0 0 1-2.78 3.9c-.73.82-1.6 1.61-1.72 2.74-.03.18.03.4-.11.53a4.42 4.42 0 0 1-1.2-.63c-.58-.41-1.43-.36-1.81-1.1-.16-.3.04-.6.18-.81.43-.42.37-1.15.14-1.65-.05-.01-.07.05-.1.06-.04.76-.64 1.29-.41 2.13.05.24.18.4.24.62-.09-.02-.22-.02-.3-.06-.28-.04-.56-.15-.85-.12-.6.27-1.4-.06-1.87.48-.08.01-.18.03-.16.14.28 0 .55.08.84.07.44.07.74-.3 1.05-.47h.07c.13-.13.35-.05.52-.07.8.09 1.43.47 2.1.87v.05c-.26.12-.55.2-.81.34-.3.22-.63.5-.72.86-.2.32.07.6.2.87 0 .13.02.28.13.34.41-.44.03-.98.1-1.48.1-.39.46-.57.83-.67.73-.3 1.25.28 1.84.62-.01.59.07 1.15-.06 1.73-.18.06-.41.1-.6.1-1.02.07-1.81.62-2.72.93-.4.14-.9.13-1.3.28.31.1.65-.02.98-.04 1.25-.18 2.22-1.14 3.57-.97l.03.04c-.16.32-.36.59-.6.83-.04-.14-.06-.26-.18-.33-.1-.06-.22 0-.3.1-.04.06-.04.14 0 .2.07.1.17.13.28.17-.02.12-.16.17-.24.27-.36.6-1.09.36-1.51.79-.06.09-.3.14-.2.28.5.05.97-.08 1.33-.34.47-.52.97-1.02 1.44-1.53.08.42-.03.84-.28 1.17-.11-.06-.2-.15-.34-.19-.13.03-.22.16-.23.26.05.09.1.2.19.26-.44.3-.99.33-1.49.47-.93.12-1.84.2-2.79.2-.45-.02-.96.14-1.38 0-.49.1-1.01-.06-1.41.21-.05.07.01.13.01.2.6.38 1.4.07 2.06.19h5.05c.37-.01.74-.03 1.04-.2.65-.37 1-1.04 1.34-1.7.13-.22.22-.5.27-.76.13-.44.53-.75.96-.79.06.67-.06 1.34-.22 1.96-.07.4-.34.8-.18 1.24.04.21.26.21.43.24 1.55-.03 3.1-.1 4.74.02.29.05.55.14.87.13.02-.04.11-.05.07-.13-.04-.14-.14-.32-.3-.36-.03-.08-.14-.05-.18-.1-.82-.46-1.8-.22-2.77-.2-.5.04-1 .13-1.42-.15-.2-.23-.05-.96-.05-.96 0-.3.7-2.32.8-2.48.02-.2.1-.38.07-.6.1-.25.08-.59.08-.87.05-.41.25-.8.4-1.2.07-.19.13-.4.21-.59.08-.24.1-.47.26-.66.41.26.82.25 1.02.73l.18 1.07c0 .06.05.19.14.11.33-.22.23-.7.23-1.04.08-.4-.2-.59-.32-.94-.09-.06-.24-.37-.24-.37-.05-.28-.67-.48-.53-.82.08-.3.16-.57.44-.74.04.03.06.06.06.1l.16-.11.01-1.08c.42 0 1.04.05 1.46.05.11.04.2.13.33.15l.1-.15 1.04-.2c-.44.05-.7-.45-1.13-.45Z"/>
      <path d="M40.48 7.8a.8.8 0 0 0 .1-.02l-.1.01ZM29.33 11.37c0 .16-.08.25-.2.3-.1-.04-.18-.05-.24-.16-.05-.14.08-.24.18-.29.1.02.23.04.26.15ZM28.5 11.37c.07.08.08.2.04.3-.09.08-.23.14-.3.04-.08-.08-.16-.17-.1-.27.1-.1.25-.17.35-.07ZM46.32 11.51l.01.02ZM56.08 11.73c.05.14-.06.25-.17.3-.12-.04-.3-.07-.3-.23.02-.1.11-.17.2-.2.12-.03.22.06.27.13ZM56.76 11.7c.04.07.13.17.03.24-.06.04-.1.05-.13.1-.14.03-.27-.02-.31-.15-.03-.14.09-.2.2-.27.08-.03.15.04.21.09ZM25.28 11.86c-.05.16-.18.22-.35.17a.51.51 0 0 1-.1-.17c.01-.09.04-.18.14-.22.15.02.27.08.3.22ZM29.6 12.08c-.02.1-.13.2-.22.24-.13.02-.22-.09-.28-.18 0-.1.05-.23.15-.25.14-.05.3.05.35.19ZM28.84 11.99c.04.04.08.14.04.2-.08.07-.2.19-.32.1-.08-.06-.17-.1-.14-.24.05-.05.11-.12.19-.15.1-.02.15.04.23.09ZM58.72 12.14c0 .1-.1.21-.17.25a.25.25 0 0 1-.28-.07c-.08-.02-.05-.12-.05-.19a.44.44 0 0 1 .24-.17c.12.03.2.1.26.18ZM59.54 12.26c-.04.12-.13.22-.25.23-.07-.01-.21-.04-.19-.15 0-.1.05-.18.12-.2.13-.07.28 0 .32.12ZM26.74 12.44c.02.15-.03.26-.16.3-.09.06-.17 0-.24-.06-.06-.06-.11-.16-.06-.25.02-.12.14-.1.21-.14.12 0 .18.06.25.15ZM27.37 12.56c.04.1-.08.14-.1.21-.07.04-.16.08-.24.03-.09-.08-.19-.2-.1-.3.1-.2.37-.1.44.06ZM57.96 12.5c.02.12-.1.21-.18.29a.22.22 0 0 1-.25-.16c-.01-.1.05-.18.14-.24.11-.01.23 0 .3.1ZM59.01 12.7c-.02.11-.01.24-.14.32-.1.02-.23.01-.3-.05-.08-.07-.1-.18-.06-.27.07-.1.18-.18.31-.16.09.05.12.12.2.16ZM26.25 12.97c.05.1-.06.13-.1.18-.09.05-.18.01-.26-.03-.09-.05-.05-.18-.03-.24.11-.22.34-.07.4.09ZM58.2 13.21c.06.01.03.1.02.12-.3.15-.77.19-1.04-.05-.15-.13-.34-.18-.51-.29.06-.16.3-.15.46-.19.37.05.67.4 1.08.41ZM26.87 13.1c.02.1-.05.14-.08.21-.05.08-.15.06-.22.03-.11-.08-.17-.22-.09-.32.14-.14.3-.06.39.08ZM28 13.17c.05.12-.03.22-.13.29-.1.05-.17-.03-.25-.04-.06-.1-.18-.2-.06-.3.11-.2.34-.09.43.05ZM42.8 13.72c-.02.25-.45-.04-.39.3.06.25.11.54.26.72.12.17.06.44.05.65-.11.18-.3.32-.5.41-.36-.03-.9.19-1.06-.26-.07-.2-.2-.4-.2-.61.03-.03.08-.03.11-.06 0-.09-.1-.14-.08-.23.41-.07-.17-.43.18-.46.3.3.77.2 1.02.54.06.05.11.12.19.16-.05-.3-.2-.61-.25-.94a.42.42 0 0 1 .15-.43c.22-.17.4.07.52.2ZM29.12 13.64c.04.12-.06.2-.14.27-.12.05-.18-.08-.23-.15-.04-.12.05-.19.13-.25.09 0 .19.04.24.13ZM37.02 13.76c.16.5.1 1.02-.15 1.44-.01.1.02.27-.12.26-.34-.48-.09-1.14.05-1.65.03-.12.18-.17.22-.05ZM47.99 14c.17.37.19.84.02 1.2l-.1.1c-.14-.29-.26-.59-.3-.9.07-.24.14-.44.16-.69.18-.04.16.2.22.3ZM30.12 14.15c-.08.15-.3.2-.44.3-.3.23-.75.28-1.14.21a1.4 1.4 0 0 1 1.46-.6c.03.05.1.03.12.09ZM24.85 14.61c.48.34.6.8.89 1.26.04.05.16.07.11.17-.1.08-.2-.08-.34-.05-.49-.22-.8-.76-.78-1.33 0-.05.07-.05.12-.05ZM47.49 15.01c.01.13-.02.26-.12.3a.23.23 0 0 1-.3-.16c-.03-.09.04-.14.07-.2.1-.1.28-.05.35.06Z"/>
      <path d="M52.9 15.7c0-.25.06-.48.08-.71a.47.47 0 0 0 .05-.27c.31-.42.94-.29 1.42-.25.2.1.44.1.64.14.1-.06.22-.07.32-.06.42-.22.15-.7.17-1.07l-.15-.38a1.49 1.49 0 0 1-.1-.26c-.08-.1-.13-.26-.2-.35-.23-.56-.65-.89-1-1.34a5.42 5.42 0 0 0-2.71-1.65c-1.01-.35-2.04.1-2.95.42-.28-.08-.42-.3-.5-.54-.05-.49.05-.96.25-1.36.04-.32.25-.57.34-.86.23-.72.48-1.43.53-2.21.02-.48-.34-.81-.7-1.02-.24-.06-.52-.05-.7.14-.16.35-.52.58-.83.75-.03.22.24.07.33.15.28.05.6-.04.83.14.03.52-.26.94-.53 1.33-.44.64-.9 1.3-1.17 2l-.05-.05.06 3.14c.41.68.92 1.45 1.68 1.7.41.34.92.74 1.48.44.29-.09.32.33.46.5.15.47-.2.8-.22 1.24l-.34.7c-.38.75-.73 1.55-1.31 2.18-.2 0-.31.2-.5.22-.1.14-.31.04-.44.09-.4.16-.96.06-1.23.43.03.04.07.06.1.07.79.01 1.66.06 2.49.02a.3.3 0 0 0 .2-.24c-.11-.22.04-.41.15-.58.06-.3.26-.5.35-.8.27-.52.58-1.04.87-1.56l.4-.65c.09-.21.24-.48.4-.72.1-.1.15-.21.23-.34.01-.13-.05-.18-.13-.27.09-.1.23-.07.35-.1.32.2.65.5.71.86l.12.33.05.15-.03.43.06.4c.06.61-.06 1.24-.12 1.86-.22.75-1.07.67-1.7.84-.14.1-.44.05-.44.3.74.16 1.62.07 2.4.06.14-.06.16-.17.23-.29.02-.16.19-.3.14-.49-.14-.18-.01-.46-.05-.7a.4.4 0 0 0 0-.25c.1-.37.07-.82.15-1.18l.05-.49ZM59.2 15.2c-.42.57-.85 1.22-1.57 1.43-.05 0-.1.03-.13-.04.44-.46.67-1.18 1.35-1.35.1-.05.24-.1.34-.05ZM24.23 15.82c-.07.05-.02.17-.13.18-.1.05-.22-.01-.27-.11-.05-.13.06-.26.17-.29.1.05.2.1.23.22ZM27.92 16c.04.12-.1.12-.16.14a1.4 1.4 0 0 1-1.47-.37c0-.05 0-.1.05-.12.53.13 1.14.03 1.58.35ZM24.93 15.83c.03.05.04.14.03.2-.08.11-.2.14-.32.11a.42.42 0 0 1-.17-.17c.01-.12.12-.2.22-.24.1.01.18.04.24.1ZM36.93 15.9c.03.11-.07.2-.15.24a.25.25 0 0 1-.27-.1c-.04-.09 0-.22.09-.25.12-.02.3 0 .33.1ZM59.68 15.95c.04.13-.08.2-.17.27-.07.04-.16 0-.24-.04-.01-.06-.09-.12-.06-.2.05-.12.16-.17.3-.16.06.05.1.06.17.13ZM60.52 15.9c.08.11.02.2-.05.3a.18.18 0 0 1-.23.07c-.07-.08-.18-.12-.19-.23 0-.1.12-.18.2-.22.12-.05.17.08.27.08ZM23.69 16.27c.01.09-.06.14-.09.22-.06.02-.13.08-.2.05a.37.37 0 0 1-.2-.2c.03-.12.1-.22.23-.26.1.02.22.08.26.19Z"/>
      <path d="M50.66 16.27c.03.05.02.12.02.17-.08.1-.18.2-.31.13-.08-.08-.17-.16-.13-.27.1-.14.32-.2.42-.03ZM25.75 16.46c-.02.1-.06.18-.18.2-.11 0-.15-.1-.21-.15 0-.11-.02-.23.1-.3.15-.04.3.09.3.25ZM24.52 16.49c.04.13-.05.22-.13.28-.15.05-.28-.06-.34-.18.01-.11.1-.26.23-.3.11 0 .18.13.24.2ZM51.5 16.46c.03.13 0 .26-.13.31-.16.05-.28-.08-.35-.18.07-.1.08-.24.23-.27.12 0 .2.05.26.14ZM25.12 16.51c.04.1-.03.13-.06.2-.06 0-.1.07-.18.05-.05-.07-.15-.1-.17-.18 0-.13.08-.2.17-.25.13 0 .2.08.24.18ZM58.97 16.62c-.04.1-.11.15-.21.2-.1.03-.17-.06-.25-.1-.06-.05-.04-.17-.01-.23.13-.22.47-.12.47.13ZM59.95 16.67c-.04.14-.18.2-.3.22-.12-.05-.25-.14-.16-.3.05-.05.07-.1.15-.12.16-.05.27.07.3.2ZM53.86 16.76c.07.17-.09.22-.19.3a.59.59 0 0 1-.24-.1.3.3 0 0 1 .18-.34c.11 0 .18.05.25.14ZM50.34 16.91c.07.03.04.12.03.16-.08.05-.18.18-.3.1-.09-.05-.15-.13-.13-.24.07-.15.34-.16.4-.02ZM51.06 17c.01.1-.01.16-.1.2-.1.1-.2 0-.28-.03-.03-.05-.06-.13-.02-.2a.3.3 0 0 1 .17-.1c.09.03.2.03.23.13ZM29.33 17.02c.07.07-.02.16-.03.24-.06.08-.2.14-.32.06-.13-.05-.12-.21-.09-.32.08-.02.08-.11.18-.11.11.01.18.06.26.13ZM55.24 17.07c.02.13-.1.18-.2.2-.15.05-.23-.06-.3-.16 0-.08.09-.13.11-.2.18-.07.3.05.39.16ZM54.54 17.07c.05.13-.09.2-.14.25a.25.25 0 0 1-.28-.05c-.06-.04-.06-.11-.06-.19.07-.06.11-.14.2-.17.12 0 .23.07.28.16ZM60.32 17.22c.02.18-.2.1-.3.14-.53.32-1.22.08-1.74-.11.04-.17.23-.1.34-.17.55-.35 1.11.08 1.66.1l.04.04ZM25.27 17.07l-.06.09c-.47.28-1.08.47-1.65.3l-.05-.08c.48-.35 1.1-.44 1.72-.35l.04.04ZM56.54 17.16c0 .1-.05.19-.13.24-.12.04-.3 0-.33-.14-.04-.1.06-.2.17-.24.09 0 .24 0 .3.14ZM27.56 17.2c-.05.11-.03.21-.16.27-.12.05-.28-.07-.32-.17-.03-.14.07-.18.13-.25.16-.07.27.04.35.16ZM26.65 17.27c.04.1-.04.14-.07.2-.06.09-.18.07-.25.05-.1-.08-.18-.17-.14-.31.07-.07.11-.1.2-.14.12.02.23.07.26.2ZM57.44 17.57c-.01.11-.1.2-.2.23-.1.01-.2-.06-.25-.13a.2.2 0 0 1 .05-.24c.03-.04.12-.04.17-.07.11.02.2.1.23.2ZM25.7 17.43c.04.1-.05.14-.06.22-.04.21-.18.36-.28.55-.25.3-.6.3-.94.38l-.05-.1c.37-.47.77-.85 1.3-1.08l.03.03ZM56.8 17.71c.02.15-.1.18-.2.24a.3.3 0 0 1-.25-.15c-.04-.14.09-.2.17-.26.12-.02.24.07.28.17ZM27.17 17.71c-.01.03.02.05.04.06-.01.15-.11.18-.19.25a.35.35 0 0 1-.28-.13c-.05-.12 0-.26.13-.3.11 0 .27 0 .3.12ZM59.15 18.1c.13-.02.16-.17.3-.2.13-.02.24.05.3.14.06.16-.06.24-.16.3-.09.06-.28-.08-.27.09.09.06.17.15.18.26-.03.05-.12.04-.15.01-.38-.15-.77-.41-.93-.8-.05-.11-.3-.2-.15-.3.37-.03.68.26.88.5ZM60.38 17.7c.07.06.04.18-.01.24-.06.13-.26.08-.37.07-.07-.07-.13-.13-.1-.24.05-.07.1-.12.19-.16.11-.03.2.02.3.09ZM55.73 18.4c.12.13.23.35.29.5-.03.04-.1.03-.12.03-.43-.24-1-.51-1.17-1.03-.03-.05-.14-.11-.12-.2.33-.07.65.18.88.36.09.13.2.19.24.33ZM26.46 17.9c.05.12-.05.2-.12.26-.14.03-.22-.03-.3-.1-.08-.14.08-.26.19-.31.1-.01.16.09.23.15ZM57.34 18.2c0 .08-.1.13-.13.18-.1.01-.2.05-.3-.04-.02-.06-.09-.17-.01-.23.14-.18.35-.04.44.09ZM60.52 18.38c.04.15-.07.26-.18.32-.12.04-.23-.05-.3-.12-.07-.07-.01-.15 0-.24.09-.08.2-.14.33-.09.05.04.1.06.15.13ZM51.66 20.15c0 .16-.28.12-.4.23-.4.2-.87.2-1.34.2v-.08a1.9 1.9 0 0 1 1.74-.35ZM32.98 20.7c-.02.12-.08.19-.2.22a.25.25 0 0 1-.22-.12c-.05-.16.08-.22.17-.29.12.02.22.1.25.2ZM51.44 20.85c-.02.11-.06.24-.19.3-.11.02-.2-.05-.28-.1-.06-.05-.03-.14-.04-.2.1-.23.42-.23.51 0ZM54 20.9c-.33.2-.69.45-1.1.45l-.7-.02-.07-.05c.43-.51 1.2-.51 1.86-.46v.08ZM29.47 21.2c0 .12-.06.21-.17.25-.13.03-.22-.03-.27-.11-.05-.12 0-.24.1-.3.14-.1.28.06.34.17ZM30.1 21.33c.05.07-.02.1-.04.17-.08.04-.18.07-.25 0-.09-.05-.11-.14-.07-.22.03-.07.11-.06.15-.11.09.04.18.07.22.16ZM25.2 22.63c-.13.16-.33-.04-.47-.11-.45-.26-.44-.76-.89-1.06.05-.15.17.02.26-.01l.27.14c.43.25.54.66.83 1.04Z"/>
      <path d="M42.17 22.39c-.05.15-.15.28-.14.45l-.05.02c.04-.19-.15-.3-.1-.51-.1-.15-.1-.35-.2-.51-.11-.21.1-.3.2-.44.18.08.24.24.37.4.07.22-.1.38-.08.59Zm20.36-4.74c-.2-.38-.55-.53-.96-.53-.33.02-.57.24-.71.53-.08.28.02.54.24.7.09.04.2.03.26-.06.06-.17-.12-.17-.14-.3-.06-.18 0-.33.14-.45.12-.13.34-.06.5-.06.15.1.3.2.38.37.08.22.08.46 0 .68-.14.32-.46.58-.8.65-1.06.15-12.72.1-12.72.1-1.37.13-2.94-.26-4.12.46-.53.26-.8.85-.94 1.38-.35.3-.72.66-1 1.01l-.04-.04c.06-.3.2-.58.27-.88.19-.26.19-.6.33-.9.49-.77.95-1.57 1.7-2.12.32-.43.89-.35 1.37-.35a3.4 3.4 0 0 0 1.78.26.12.12 0 0 0 .04-.1c-.18-.16-.47-.23-.68-.4-.5-.24-1 .08-1.53.05-.03-.03-.05-.04-.04-.08a7.57 7.57 0 0 1 1.59-.85c.45-.24.92-.37 1.4-.55.18 0 .36-.17.54-.05l.68-.18c.03.01.05.05.1.04.58-.2 1.31-.02 1.96-.03l.1.08.6.15c.24.03.34.3.59.31.12-.18-.15-.26-.21-.37.28-.07.6.01.86.13l-.13.14c-.08.14.04.24.15.3.1.02.16-.05.22-.07.17-.12-.01-.23.04-.34.95.17 1.86.4 2.73.77.24.08.47.26.74.25-.27-.25-.64-.37-.97-.52-.22-.12-.53-.14-.7-.32.04-.06.13-.04.17-.09.44-.05.81-.37 1.12-.72.02-.07.16-.05.15-.15-.11-.13-.3.04-.46.03-.54.1-.77.73-1.3.84-.66-.15-1.33-.3-1.98-.47-.32-.05-.67-.08-.96-.2l-.72-.07h-1.3c-.02-.03-.05-.04-.04-.08.46-.11.86-.39 1.32-.5l3.43-1.57c.36-.32.68-.68.97-1.05a.24.24 0 0 0-.14-.25c-.09-.04-.19-.02-.25.05-.16.12 0 .26 0 .4-.16.2-.4.39-.6.5-.04 0-3.53 1.59-3.53 1.59-.51.21-1.02.46-1.56.57l-.74.12c-.05.15-.18.24-.32.3-.2.03-.38.16-.6.16-1.66.64-3.39 1.33-4.7 2.64.07-.16.1-.35.12-.54-.02-.2-.01-.41-.14-.57-.03-.07-.12-.28-.1-.35l-.18.12c-.12.28-.22.8-.1 1.1.04.22.23.5.05.7-.62.75-.96 1.65-1.37 2.5-.16-.03-.23-.17-.3-.32.44-.55.78-1.16.91-1.87.1-.07.03-.23.12-.31-.03-.2.11-.41.01-.58.08-.28-.37-.54-.08-.72l-.24.12c-.55.72.28 1.8-.34 2.5v.04c-.18.23-.27.47-.52.62-.3-.13-.42-.48-.6-.73-.28-.27-.28-.83-.11-1.2.11-.37-.08-.7-.12-1.03l-.13-.07c-.3.4-.42 1.02-.18 1.5.13.23.14.55.34.75.11.37.34.61.55.95.05.12-.08.15-.14.21-.14-.09-.12-.3-.25-.38a9.37 9.37 0 0 0-1.64-2.35c-.02-.12-.14-.22-.07-.35.24-.23.3-.68.16-.98-.02-.06-.1-.14-.09-.2l-.19-.16c.03.45-.27.85-.14 1.33v.02a24.35 24.35 0 0 0-4.26-2.56l-.12.32c.37.1 1.37.7 1.37.7.45.17.86.44 1.28.68a8.8 8.8 0 0 1 3.68 4.33c0 .14.14.3.05.44-.27-.41-.66-.64-.98-.98a1.87 1.87 0 0 0-.97-1.42c-.2-.29-.6-.31-.92-.4l-4.66-.03c-3.8-.05-7.25.12-11.02.05-.52-.05-1.16-.23-1.32-.78a.85.85 0 0 1 0-.7c.15-.25.4-.33.66-.35.2.02.34.21.43.36 0 .16-.14.32-.2.46.01.05.06.15.15.11a.6.6 0 0 0 .33-.4c.02-.1.06-.23-.03-.29-.08-.27-.36-.46-.6-.53-.33-.02-.66.07-.88.3-.3.26-.3.72-.2 1.08.2.56.8.95 1.38 1.03l12.46.05c1.22.06 2.59-.14 3.82.1.45.14.92.48 1.04.98-.02.02-.05.01-.1.01a5.56 5.56 0 0 0-3.63-.74c-.51-.03-.97.16-1.43.3-.25.04-.48-.07-.63-.21-.46-.42-1.27-.4-1.86-.24 0 .04-.01.08.01.1.63-.06 1 .48 1.57.55.12.02.23-.12.34-.02-.59.29-1.15.62-1.78.8-.2-.04-.3-.22-.45-.32-.24-.27-.69-.15-1.02-.18-.12.03-.22-.05-.3 0 .1.2.34.32.55.42.32.14.7-.01 1 .18-.09.1-.19.12-.28.18-.6.23-1.1.77-1.77.74a2.3 2.3 0 0 1-1.9-.62c-.2-.5-.72-.77-1.28-.75-.04.03-.1.03-.08.1.28.16.5.5.78.69.18.22.53 0 .7.24.24.17.54.31.82.36.2.1.44.13.67.18l-.09.05c-1.16.39-2.51.43-3.82.38-.38-.02-.75-.13-1.14-.12.07.08.2.14.31.18a.8.8 0 0 1-.34.1c-.16.04-.34.05-.5.13-.2-.01-.38.07-.54.13-.22.23-.48.47-.73.6 0 .04-.01.12.05.12.24-.1.55-.03.8-.13.42-.04.66-.5 1-.7.35-.28.86-.21 1.3-.15.26.07-.03.17.05.34.1.09.2.19.33.15a.21.21 0 0 1 .1-.06c.07-.1.06-.22 0-.32.19-.12.43 0 .62-.07.49-.01.97-.11 1.45-.13.07-.01.16-.09.24-.01-.04.1-.17.12-.11.26.02.11.15.16.25.19.13-.05.24-.14.2-.3-.03-.1-.13-.11-.2-.15.27-.13.58-.17.85-.3.19-.03.37-.1.53-.18.17 0 .31-.16.47-.1a2.7 2.7 0 0 1-.27.62c-.2.68-.36 1.58 0 2.24.04 0 .05-.02.07-.03-.27-.68-.11-1.47.12-2.1.18-1.1 1.3-1.42 2.11-1.83l.04.05c-.22.56-.54 1.1-.49 1.78.03.12-.05.24 0 .31.22-.11.36-.37.48-.59.09-.58-.25-1.3.34-1.72 1.05-.41 2.04-.95 3.26-.96.04.03.13-.03.14.05-.26.28-.63.55-.74.9-.41.56-.4 1.53-.22 2.22.11.4-.23.62-.4.93-.08.1-.1.3-.18.42l.26.02c.22-.23.42-.5.43-.84.03.13.14.23.25.25.09-.14-.08-.24-.1-.38.21-.12.3.14.47.2.27.06.5.17.78.17l.09-.09c-.28-.44-.85-.51-1.33-.54-.26-.42-.26-.95-.23-1.46.05-.27.1-.56.25-.8.07-.18.25-.35.36-.49.23-.22.53-.37.8-.44h.05v.04c-.34.27-.38.64-.58.98-.22.32-.32.76-.12 1.12.08.16.04.42.22.54.17-.23.18-.53.27-.79-.04-.42-.3-.82-.05-1.23.13-.32.4-.45.7-.57.7-.06 1.31.3 1.92.57.13.09.35.17.38.35-.02.34-.2.7-.48.86-.34.2-.84.23-1.16-.02a.88.88 0 0 1-.2-.78c.13-.15.33-.28.56-.2.12.06.24.19.4.11.07-.04.1-.14.06-.2-.14-.08-.2-.27-.39-.3-.24-.04-.54-.03-.7.14a.9.9 0 0 0-.3.9c.1.41.4.7.8.82a1.5 1.5 0 0 0 1.57-.54c.16-.16.2-.34.28-.55a3.35 3.35 0 0 1 1.32 1.7c0 .22.07.45.02.64l.44.04c-.03-.1 0-.22.04-.31.17-.85.7-1.56 1.32-2.1.22-.14.17.16.22.25.2.49.64.83 1.11.98.54.09 1.05-.04 1.39-.45.16-.31.37-.76.09-1.08a.88.88 0 0 0-.7-.34c-.34 0-.55.23-.71.48 0 .1-.01.21.07.27.06 0 .16.01.2-.07.02-.19.19-.28.34-.38.14-.08.3 0 .41.07.14.12.17.31.18.5-.02.25-.19.5-.42.61-.37.2-.91.1-1.23-.12-.15-.16-.24-.36-.36-.56-.02-.2-.1-.39 0-.6a4.33 4.33 0 0 1 1.83-.63c.27.05.5.23.68.42.6.6-.13 1.46.28 2.13.16-.02.16-.23.22-.36.2-.46-.05-.96-.16-1.41-.16-.28-.25-.53-.5-.76.07-.02.1-.02.16-.02.27.18.57.38.78.66.37.6.57 1.33.5 2.11-.1.39-.51.57-.83.7-.13.11-.28.27-.35.42.16.09.38 0 .53-.06.24-.1.38-.4.55-.54.03 0 .01.05.03.07 0 .14-.07.34.06.38.06-.18.08-.44.12-.66.16.18.19.41.24.64.11.23.3.54.61.58.08-.11 0-.23-.04-.33-.03-.33-.3-.5-.48-.72-.45-.62-.25-1.58-.59-2.28-.13-.37-.4-.64-.7-.95l.06-.05c.63-.01 1.15.2 1.73.3.7.35 1.73.28 2.06 1.2.14.5.37.98.73 1.38l.04-.03a.52.52 0 0 0 0-.47c-.08-.65-.64-.8-.94-1.34l.04-.05c.3.09.63.17.94.3 1.02.28 1.74 1.28 1.87 2.32 0 .82-.16 1.5-.48 2.2-.04.1-.21.22-.1.3.14-.1.17-.26.24-.38.43-.7.64-1.68.43-2.58-.02-.17-.2-.3-.12-.46.06.07.14.09.22.11.08-.05.2-.05.24-.14.01-.08.07-.17 0-.23-.08-.12-.24-.12-.37-.1a.61.61 0 0 0-.15.3c-.13-.23-.26-.5-.46-.69l.02-.04c.58.2 1.1.48 1.7.63.12.08.26.14.44.14.5.2 1.05.27 1.58.4.38-.04.7.14 1.08.05v-.02.01c-.15-.18-.46-.01-.62-.14a9.75 9.75 0 0 1-2.53-.63c.02-.04.07-.03.1-.03.13-.06.22-.18.21-.32a.35.35 0 0 0-.3-.14c-.07.04-.17.13-.19.22.02.1.1.22.2.24-.03.03-.08.02-.12.02l-1.16-.53c-.15-.03-.26-.14-.4-.17-.3-.14-.59-.28-.89-.4-.81-.42-1.72-.65-2.6-.96l-.55-.15c-.32-.1-.64-.17-.96-.26-1.08-.27-2.55-.3-3.5.3-.15-.06-.24.19-.31.03.27-.7 1.05-.94 1.75-.96 5.14-.05 9.95-.1 15.01-.17.6 0 1.17-.2 1.48-.73.21-.31.25-.84.08-1.18Z"/>
      <path d="M56.07 21.58c0 .04.07.05.05.11-.45.4-1.08.52-1.72.54-.05.02-.1.06-.16.04-.04-.02-.05-.06-.03-.09.46-.5 1.17-.76 1.86-.6ZM54 21.78c.06.18-.06.29-.2.35-.14-.01-.22-.1-.28-.2-.04-.1.05-.16.09-.22.1-.1.34-.1.4.07ZM29.66 21.81c.02.1.01.2-.07.27-.05.06-.16.08-.23.06-.09 0-.14-.11-.16-.19 0-.11.06-.18.16-.24.1 0 .22-.02.3.1ZM27.37 22.65v.09a1 1 0 0 1-.84-.2 1.72 1.72 0 0 0-.68-.64c0-.04-.07-.09 0-.12.64 0 1.03.52 1.52.87ZM58.01 21.8c-.29.43-.55.97-1.07 1.17-.1 0-.17.13-.24.04.2-.5.64-1.02 1.14-1.23.05 0 .12 0 .17.02ZM30.4 21.95c.01.14-.09.17-.18.25-.1 0-.15-.07-.22-.15-.05-.12.07-.18.13-.24.1-.03.22.05.27.14ZM59.63 22.03c-.12.17-.07.41-.18.6-.26.29-.48.62-.89.68-.06-.12.1-.25.16-.37.18-.38.43-.82.84-.99l.07.08ZM23.4 22.14c.03.1.07.18 0 .29a.3.3 0 0 1-.3.05.24.24 0 0 1-.1-.3c.08-.13.3-.19.4-.04ZM22.67 22.3c0 .06.05.11.03.18-.03.06-.1.14-.17.15-.15.03-.23-.05-.3-.16-.01-.12.03-.22.13-.27.11-.06.24 0 .3.1ZM24.18 22.38c.02.1.05.28-.1.3-.19.08-.29-.05-.39-.15 0-.12.06-.2.15-.26.13-.01.25 0 .34.1ZM26.28 22.54c-.02.1.01.22-.1.25-.06.06-.17.04-.24.02-.02-.07-.16-.14-.09-.23.06-.06.1-.1.18-.14.08.04.2 0 .25.1ZM60.86 22.63c-.04.1-.1.2-.2.2-.11 0-.23-.02-.29-.13-.05-.14.06-.22.17-.26.12 0 .3.05.32.2ZM58.51 22.7c.02.1-.1.18-.15.22-.18.07-.33-.06-.4-.2.03-.11.12-.19.22-.23.17-.01.26.08.33.2ZM60.1 22.67c0 .1-.05.18-.11.22-.1.04-.23.03-.31-.05-.12-.1-.03-.2.05-.27.12-.07.33-.05.37.1ZM23.06 22.9c.03.13-.02.26-.15.31-.12 0-.24-.06-.28-.18-.02-.11.02-.23.13-.27.12-.04.23.04.3.13ZM57.87 23.03c.04.14-.04.27-.18.34-.1.02-.16-.03-.24-.1-.05-.06-.12-.2-.01-.26.1-.2.36-.12.43.02ZM29.95 23.17c.05.14-.1.17-.14.25-.05.02-.15.04-.19-.02-.06-.07-.14-.15-.1-.27.06-.05.09-.1.16-.12.15-.04.2.09.27.16ZM60.63 23.26c.02.1-.05.13-.07.2a.35.35 0 0 1-.3.05c-.1-.07-.1-.17-.1-.29.07-.05.08-.11.17-.14.12 0 .26.05.3.18ZM59.83 23.3c.05.16-.09.23-.19.27-.05.01-.13-.02-.14.05.33.17.54.44.8.68v.1a1.74 1.74 0 0 1-1.28-.48c-.08-.07-.24-.07-.34-.16.17-.16.47-.1.7-.11.17-.18-.19-.31.03-.46.08-.02.13-.1.23-.07.09.04.14.1.2.18ZM54.6 23.31c.02.07-.06.15-.07.21a.26.26 0 0 1-.28.05c-.06-.09-.17-.17-.13-.3.1-.19.44-.15.47.04ZM25.96 23.76c-.04.12-.1.2-.22.21-.1-.01-.2-.05-.23-.15-.01-.1.05-.15.06-.21.15-.12.4-.04.39.15ZM27 23.6c0 .18-.2.28-.26.46-.2.42-.54.8-1.03.85-.05-.12.17-.26.22-.37.2-.44.62-.67.99-.94H27ZM54.29 23.78c.01.14-.12.24-.22.3-.12.03-.2-.06-.27-.11-.1-.1-.04-.2.01-.3.16-.16.38-.03.48.1ZM55.08 23.87a.32.32 0 0 1-.23.28c-.02-.04-.09-.01-.13-.03-.09-.05-.17-.12-.17-.23.07-.06.1-.16.19-.18.11-.01.3 0 .34.16ZM28.98 23.85c.01.14-.09.22-.2.27-.1.02-.18-.06-.24-.15-.02-.12.1-.2.16-.26.15-.05.2.07.28.14ZM29.86 23.9a.3.3 0 0 1-.24.22c-.09-.02-.2-.05-.23-.15-.01-.13.09-.2.18-.26.13 0 .27.05.3.2ZM57.84 24.8c.06.06.17.12.15.21-.2.1-.37-.14-.56-.18-.31-.3-.54-.64-.67-1.03.12-.11.24.03.35.07.29.24.57.56.73.94ZM58.3 23.9c.05.1.03.2-.02.29-.07.13-.24.1-.36.08-.06-.08-.17-.18-.1-.3.04-.1.16-.13.25-.17.08-.01.15.07.24.1ZM31.04 24.24c.01.1.04.26-.09.32-.11.03-.27-.01-.3-.15-.07-.16.07-.18.15-.26.1-.03.16.02.24.09ZM55.04 25.08c.18.25.31.57.34.9-.04.1.06.19-.02.25h-.05c-.57-.41-.7-.99-.92-1.57-.05-.02-.06-.07-.05-.12.13-.12.22.11.34.15l.36.39ZM32.7 24.64c0 .01 0 .02.02.02-.51.36-1.23.58-1.82.23-.01-.03.01-.1.06-.11.38-.12.74-.3 1.13-.24l.62.1ZM29.79 24.7c-.44.27-.84.8-1.37.93-.1.04-.17.18-.3.1.23-.7.99-1.07 1.67-1.13v.1ZM54.29 25.28c.04.1 0 .25-.1.27-.07.06-.2.06-.25 0-.11-.05-.11-.17-.11-.26.03-.09.12-.1.19-.14.11.03.2.03.27.13ZM53.23 25.35c-.08.18-.3.28-.47.33-.43.15-.83-.05-1.21-.15 0-.1.14-.07.2-.13a2.8 2.8 0 0 1 1.3-.07c.05-.02.14-.04.18.02ZM29.79 25.72c-.04.05-.05.16-.16.2-.09.04-.18 0-.25-.05-.03-.07-.12-.14-.05-.23.02-.09.12-.11.2-.14.13.01.23.09.26.22ZM30.54 25.83c-.04.08-.07.2-.18.25-.1.02-.18-.03-.25-.1-.04-.07-.08-.16-.04-.25.02-.06.11-.08.18-.12.13 0 .24.12.3.22ZM54.04 25.96c.02.1-.04.17-.09.25-.06.09-.19.1-.28.05-.09-.01-.11-.12-.15-.18-.08-.1.05-.17.09-.26.14-.12.37-.05.43.14ZM54.6 25.94c.02.06.06.13.03.18-.08.06-.13.23-.28.16-.08.03-.11-.07-.15-.1-.05-.13-.02-.32.15-.35.12-.03.2.07.26.1ZM30.08 26.3a.35.35 0 0 1-.13.36c-.14.02-.32.02-.37-.15-.01-.12 0-.3.16-.37.12-.01.28.02.34.17ZM30.81 26.26c-.02.36-.1.8-.46 1-.2.04-.4.23-.61.1v-.06c.26-.39.75-.68 1.07-1.04ZM52.03 26.55c.05.08-.04.14-.07.2-.08.1-.22.06-.31.02-.1-.04-.1-.17-.06-.26.02-.07.1-.11.16-.14.12-.01.22.1.28.18ZM32.1 27.14c.17.3.07.7.17 1.02-.22.03-.3-.22-.45-.35-.28-.38-.24-.9-.37-1.35a.07.07 0 0 1 .1-.02c.18.13.32.37.48.54-.03.09.07.09.06.16ZM52.67 26.66c0 .1-.11.12-.18.19a.47.47 0 0 1-.24-.12c-.04-.13.06-.16.13-.23.13-.05.25.02.3.16ZM54.2 27.8c0 .04-.02.12-.08.09h-.05c-.37-.33-.74-.7-.7-1.22l.09-.01c.34.3.73.61.74 1.14ZM53.24 27.39c0 .1-.05.18-.12.24-.14.04-.36.03-.38-.16-.02-.13.12-.2.19-.26.15-.04.26.06.3.18ZM52.4 27.66c-.19.47-.67.72-1 1.08-.07-.04-.05-.14-.03-.2.13-.48.51-.96.98-1.15.2.02 0 .17.04.27ZM53.35 28.04c0 .12-.11.17-.18.24-.1-.02-.2-.04-.28-.15-.01-.12.1-.16.17-.23.13-.02.24.04.3.14ZM43.84 4.81h-.14c-.37 0-.06.45.14.45.25 0 .26-.45 0-.45Zm-1.15.45c.37 0 .02-.45-.18-.45h-.37c-.37 0-.02.45.18.45h.37Zm-1.55 0c.37 0 .02-.45-.18-.45h-.37c-.38 0-.02.45.17.45h.38Zm2.68-.55a.32.32 0 0 1 0 .63h-3.8a.32.32 0 0 1 0-.64h3.8ZM43.85 10.58c0 .16.23.05.4.05.16 0 .38.11.38-.05 0-.24-.22-.16-.39-.16-.16 0-.39-.08-.39.16Zm.71.4c.16 0 .18-.23.18-.43 0-.44-.35 0-.53-.4-.13.34-.49.02-.49.4 0 .25 0 .42.26.42h.58ZM43.5 9.04l.73.28.7-.28-.27 1.06.56-.11-.2.64.2.62-.5-.13.22 1.14-.71-.27-.73.27.3-1.14-.58.16.15-.65-.15-.62.55.1-.27-1.07ZM41.8 10.62v-.14l-.13-.02.1-.1-.06-.1h.12l.08-.13.07.13h.13l-.06.1.1.1-.13.02v.14l-.11-.09-.12.09ZM41.23 11.34v-.14l-.12-.02.1-.1-.07-.1h.13l.07-.13.08.13h.12l-.06.1.1.1-.12.02v.14l-.12-.09-.11.09ZM42.18 11.25v-.14l-.12-.02.1-.1-.06-.1h.12l.08-.13.07.13h.13l-.06.1.1.1-.13.02v.14l-.11-.09-.12.09ZM42.3 11.79v-.08l-.07-.01.05-.06-.03-.06h.07l.04-.07.04.08.07-.01-.03.06.05.06-.06.01v.08l-.07-.05-.06.05ZM41.4 12.4v-.23l-.2-.04.16-.17-.1-.18.22.02.13-.22.12.22.22-.02-.1.18.16.17-.2.04v.23l-.2-.14-.2.14ZM41.86.28l.45 1.1 1.14-.33-.58 1.04.98.7-1.18.19.07 1.19-.88-.8-.88.8.07-1.2-1.18-.19.98-.69-.58-1.04 1.14.34.45-1.11ZM37.73 25.07c-.14.05-.2.09-.16.23l.16.67c.03.13.04.33-.04.45-.1.14-.31.24-.47.27a.94.94 0 0 1-.54 0c-.13-.06-.22-.12-.27-.35l-.17-.71c-.04-.18-.1-.17-.25-.15l-.02-.05.86-.2.02.05c-.17.04-.25.07-.2.25l.16.71c.03.12.1.42.47.33.45-.1.37-.43.34-.57l-.15-.65c-.03-.13-.08-.2-.3-.15l-.01-.05.55-.14.02.06ZM39 25.2c-.08-.13-.28-.34-.59-.27-.13.03-.25.12-.22.26.02.11.08.15.32.2l.4.07c.1.01.32.1.37.32.04.2-.06.49-.53.59-.24.05-.38 0-.45.02-.06.02-.06.06-.07.1l-.07.01-.12-.53.08-.01c.1.2.3.41.62.34.3-.07.27-.28.27-.31-.03-.14-.16-.17-.35-.2l-.18-.03c-.48-.08-.52-.26-.54-.36-.03-.13-.01-.44.47-.54.2-.05.34 0 .42-.02.06-.01.06-.05.06-.1h.08l.1.45-.07.02ZM40.69 26.05l-.93.09v-.05c.19-.04.25-.05.23-.23l-.1-1.14c-.19.02-.46.06-.48.41h-.07l-.04-.43 1.57-.15.04.44h-.07c-.09-.34-.36-.32-.54-.31l.11 1.14c.02.19.08.18.28.18v.05ZM41.73 25.28c.34 0 .48-.05.49-.33 0-.22-.1-.32-.31-.32-.15 0-.15.02-.17.09v.56Zm1.13.77h-.53l-.53-.7h-.07v.42c-.01.18.05.19.22.21v.05l-.89-.01v-.06c.18-.01.24-.02.24-.2l.02-.96c0-.19-.08-.2-.23-.2v-.06l.84.02c.19 0 .74.03.73.4 0 .26-.27.33-.42.36l.52.63c.03.04.07.05.1.05v.05Z"/>
      <path d="m43.85 25.66-.2-.56-.3.5.5.06Zm.73.61-.84-.1v-.06c.17.01.21.01.22-.06 0-.06-.05-.23-.08-.3l-.59-.07c-.09.14-.14.23-.14.26-.01.08.11.1.2.12v.06l-.54-.07.01-.05c.14 0 .19-.07.29-.23l.72-1.11h.07l.44 1.22c.09.25.12.33.24.34v.05ZM46.1 26.58l-1.49-.27.01-.06c.15.02.23.02.25-.1l.19-1.05c.03-.14-.08-.16-.2-.2l.02-.05.9.17-.02.05c-.18-.02-.26-.04-.3.15l-.18 1.02c-.02.1.04.13.21.16.39.07.56-.08.73-.3l.07.01-.2.47ZM47.08 26.8l-.89-.19.01-.05c.14.02.24.03.27-.1l.21-1.04c.03-.14-.09-.17-.2-.2v-.05l.9.18v.06c-.13-.02-.25-.05-.28.1l-.22 1.03c-.02.14.08.17.21.2v.06ZM48.16 26.44l-.2-.56-.3.5.5.06Zm.74.59-.84-.09v-.05c.17 0 .21 0 .22-.06 0-.06-.06-.23-.09-.3l-.58-.07c-.1.15-.14.24-.15.27 0 .09.12.1.2.12v.05l-.53-.05v-.06c.15 0 .2-.07.29-.22l.7-1.13h.07l.46 1.2c.1.25.13.33.26.34v.05ZM41.76 9.5c-.15 0-.36.11-.36-.07 0-.26.18-.2.33-.2.16 0 .4-.06.4.2 0 .18-.21.07-.37.07Zm.46-.1c0-.52-.3-.03-.46-.48-.12.38-.47.06-.47.47 0 .16.04.24.11.3v.15c0 .04.03.07.08.07h.55c.04 0 .08-.03.08-.07v-.17a.34.34 0 0 0 .11-.27ZM46.8 15.84c.14 0 .24-.1.24-.2 0-.12-.1-.22-.24-.22-.13 0-.24.1-.24.21 0 .12.1.21.24.21ZM45.67 8.07s-.12.2-.12.23c0 .07.06.12.12.12s.11-.05.11-.12l-.11-.23ZM37.93 8.07s-.11.2-.11.23c0 .07.05.12.11.12.07 0 .12-.05.12-.12l-.12-.23ZM39.87 8.07s-.12.2-.12.23c0 .07.06.12.12.12s.11-.05.11-.12l-.11-.23ZM41.8 8.07s-.11.2-.11.23c0 .07.05.12.11.12.07 0 .12-.05.12-.12l-.12-.23ZM43.73 8.07s-.1.2-.1.23c0 .07.04.12.1.12.07 0 .12-.05.12-.12l-.12-.23ZM37.94 10.72s.1.19.1.22c0 .07-.04.13-.1.13-.07 0-.12-.06-.12-.13l.12-.22ZM37.94 13.29s.1.19.1.22c0 .07-.04.13-.1.13-.07 0-.12-.06-.12-.13l.12-.22ZM38.25 15.32s.1.2.1.23c0 .07-.04.12-.1.12-.07 0-.12-.05-.12-.12l.12-.23ZM39.87 16.4s.11.2.11.23c0 .07-.05.13-.11.13-.07 0-.12-.06-.12-.13l.12-.23ZM45.77 10.72s-.12.19-.12.22c0 .07.06.13.12.13s.11-.06.11-.13l-.11-.22ZM45.77 13.29s-.12.19-.12.22c0 .07.06.13.12.13s.11-.06.11-.13l-.11-.22ZM45.46 15.32s-.12.2-.12.23c0 .07.05.12.12.12.06 0 .11-.05.11-.12l-.11-.23ZM43.83 16.4s-.1.2-.1.23c0 .07.04.13.1.13.07 0 .12-.06.12-.13l-.12-.23ZM41.86 17.55s-.11.19-.11.23c0 .07.05.12.11.12.07 0 .12-.05.12-.12l-.12-.23ZM45 13.72c.03.03.1.04.17.02l.07-.21c0-.01-.08-.1-.14-.08-.2.05-.42.07-.54.27 0 .13.1.25.2.31.06-.02.08.05.13.09 0 .06-.03.1-.09.1-.15-.14-.4.06-.51-.13.05-.18.15-.39-.01-.56.01-.03.07-.07.03-.1-.06-.18-.24-.04-.35-.04-.18-.03-.33.07-.44.22.01.06.04.12.1.18.05-.01.07 0 .09.05l-.13.07c.04.04.04.09.05.14-.08.03-.17-.09-.2-.15 0-.1 0-.27-.13-.3l-.1.04a.35.35 0 0 0-.05.2c0 .1.05.22.05.22s.37.28.46.45c-.11.22-.11.52-.37.65-.07.04-.07.12-.07.2l.06.04c.16-.08.46-.11.44-.38.06-.1.12-.23.23-.32.12-.02.23.04.28.14a.48.48 0 0 1-.33.36c-.02.03-.01.07-.01.1.05.09.18.05.25.04.21-.14.3-.38.48-.45.02.12-.25.16-.07.28.1-.03.25.01.32-.14-.08-.2.3-.3.06-.48 0-.19.2-.26.19-.46-.08-.2-.3-.2-.37-.37.07-.05.18-.04.26 0ZM36.12 15.94c.13 0 .24-.1.24-.21 0-.12-.1-.22-.24-.22-.13 0-.24.1-.24.22 0 .11.1.2.24.2ZM23.58 23.24c.13 0 .24-.1.24-.23 0-.12-.11-.23-.24-.23s-.24.1-.24.23.1.23.24.23ZM31.6 24.98l-.02-.01h-.01v.01h.02V25l-.01.01h-.01V25 25h.02l-.01-.01-.02-.02.02-.01h.01v.01ZM31.67 24.97l-.02.04-.01-.03-.02.03-.01-.04h-.01.02V25l.02-.02h-.01v-.01h.02V25l.01-.02v-.01h.01ZM31.72 24.98h.02V25l-.02.01h.01v-.02h-.02l.01-.02h.03-.03v.01Z"/>
      <path d="M46.06 14.65c-.05.52-.22.95-.58 1.19l-3.36 2.13h-.02a.42.42 0 0 1-.53 0l-3.35-2.13c-.36-.24-.54-.67-.58-1.19V8h8.42v6.65Zm.25-6.88h-8.93l.01 6.8c0 .69.3 1.3.7 1.48l3.43 2.17a.42.42 0 0 0 .6.03l3.48-2.2c.41-.19.7-.8.7-1.49l.01-6.8Z"/>
      <path d="m43.05 17.67.1-.05a.53.53 0 0 0-.1.05ZM35.47 26.54l-.33-.5-.18.56.5-.06Zm.85.42-.84.1-.01-.06c.16-.02.2-.03.2-.1 0-.06-.11-.21-.16-.28l-.58.07c-.05.16-.09.26-.08.3 0 .07.13.07.22.06v.05l-.52.07v-.06c.13-.03.16-.1.22-.28l.44-1.26h.07l.71 1.07c.15.22.2.29.32.27v.05Z"/>
      <path d="M50.76 24.27c-.11.23-.29.4-.55.43.02-.3.3-.53.2-.87-.17-.25-.5-.32-.81-.26-.12.08-.06.2-.1.32l-.05.43c-.26 0-.27-.23-.35-.41.01-.27.13-.54.4-.67.2-.1.53-.1.74.02.17.04.36.12.42.27.2.18.14.5.1.74Zm-1.03.12c.14-.14-.04-.95.36-.42 0 .1 0 .26-.1.33-.06.06-.16.16-.26.1Zm.14.33c.01.2-.18.15-.28.23h-.31c-.07-.1-.04-.26-.04-.36.2.03.44.03.63.13Zm.36 1.56c-.1.13-.02.34-.14.45 0 .23-.2.35-.36.44-1.53.33-3.03-.18-4.5-.44a15.72 15.72 0 0 0-6.57-.1c-.98.18-1.95.41-2.9.68-.58.08-1.22.17-1.79-.01-.46-.22-.27-.81-.4-1.22.02-.32-.1-.58-.1-.89a.75.75 0 0 1-.06-.33c.2.02.38.16.59.21 1.08.21 2.04-.14 3.04-.32.96-.2 1.94-.37 2.95-.45 1.16 0 2.33-.07 3.44.12.35.01.66.1 1 .13.72.09 1.4.28 2.12.33.12.04.26.04.39.07 1.15.18 2.44.5 3.54 0 0 .46-.19.88-.25 1.33Zm-6.5.94c.05.18.17.35.1.57-.12.24-.38.24-.6.3a.4.4 0 0 1-.3-.1c0-.05-.02-.09-.06-.13.04-.16-.29-.33-.06-.47.2-.2.7-.63.91-.17Zm.27.05c.16.04.17.2.18.34a.68.68 0 0 1-.43.63.68.68 0 0 1-.5.05c.3-.01.64-.13.77-.44l-.02-.58Zm.34 1.71c-.03.01-.03.04-.03.05-.37.02-.62-.2-.9-.4l-.01-.06c.35.03.63.25.94.41Zm-.48 1.18c-.01.04-.08.04-.1.02-.39-.5-.56-1-.8-1.54l.04-.02c.31.5.55 1.06.86 1.54Zm-.64-.3-.06.02c-.07-.05-.04-.2-.03-.27.08.07.14.16.1.25Zm-.36-.78c.01.13.14.18.07.3-.03-.05-.1-.17-.07-.3Zm-.82 1.05c-.24.01-.61.15-.84-.06.01-.1-.1-.15-.1-.25.21-.08.4.16.58-.02.3.02.6-.03.9.03.14.04.36-.23.39.04-.1.42-.62.13-.93.26Zm-.56-1.53.06-.1c-.1.3-.25.62-.42.92-.08-.3.24-.55.36-.82Zm.36-.25c.16-.18.32.1.38.25.2.28.7.54.5.92-.24.22-.63.01-.9.18-.14-.01-.38.03-.46-.11.15-.42.27-.88.48-1.24Zm-.04-.49h-.05l.08-.07c.03.02-.02.05-.03.07Zm.3.03c.04-.08.1-.2.2-.2l.02.05c-.07.06-.14.12-.23.15Zm.17.2c.03-.03.1-.03.12 0h-.12Zm.35.4c-.01.02.01.06-.03.08l-.3-.23c.15-.03.25.04.33.14Zm.51-1.59c-.15.05-.27.23-.42.27.08-.14.27-.28.42-.27Zm-.64-.17c-.02-.11.12-.02.17-.07l.4.02c-.21-.02-.47.45-.57.05Zm-.93.36c.06-.18.07-.33.19-.47.13 0 .24 0 .34.05.03.26.35.6 0 .82-.11.05-.28.17-.4.05-.17-.14-.2-.27-.13-.45Zm-.2.8c0-.05.03-.12.04-.18.07-.06.13.05.16.09a.2.2 0 0 1-.2.09Zm-.02-.6h.01v-.13h-.01v.14Zm-.14-.38c-.17-.04-.26-.23-.44-.23.16-.05.3-.04.49-.01.06.09-.04.17-.05.24Zm-.14 1.04c.03-.16.11-.38.2-.54-.01.17-.09.4-.2.54Zm-.28 0a3.1 3.1 0 0 1-.62-.15c-.13-.13 0-.27 0-.41.18-.28.7-.43.94-.17-.04.28-.15.53-.32.73Zm-.21 1.1c-.18.4-.38.8-.63 1.2-.02.07-.13.08-.2.1 0-.19.18-.33.25-.48.27-.35.35-.72.66-1.05.07.07-.08.12-.08.23Zm-1.22-.13c.31-.13.63-.4.98-.28-.25.19-.64.26-.98.28Zm.46-.89a1.4 1.4 0 0 1 .41-1.16c.18-.03.39-.07.56.03-.34.09-.76.17-.84.6.01.16-.04.25.04.39.14.24.46.14.64.33 0 .07-.05.15-.11.16-.22-.13-.5-.18-.7-.35Zm-6-4.13c.04-.1 0-.25.14-.28.09-.02.23-.02.24.08-.01.15-.02.3-.06.45-.18.01-.27-.09-.32-.24Zm.04.44c.19.14.46.07.69.11.04.14.04.32-.07.44-.21-.05-.5-.03-.61-.23.02-.1-.04-.22-.01-.32Zm-.6-.37c.03-.23.08-.48.3-.64.3-.17.73-.13 1.01.04a.5.5 0 0 1 .2.24.57.57 0 0 1-.18.58h-.13c0-.2 0-.41.07-.58 0-.15-.14-.17-.24-.23-.22-.07-.4.04-.58.13-.12.15-.24.34-.16.56.09.14.01.34.06.5l-.04.04c-.15-.16-.35-.34-.32-.64Zm12.01 5.46c.3.14.92.27 1.37.33-.04.17-.36 0-.32.25-.4-.15-.86-.23-1.15-.54.02-.01.05-.05.1-.04Zm-8 .2-.17-.16c.09-.12.28-.05.42-.13.33-.1.72-.23 1.09-.15-.39.3-.89.34-1.34.45Zm13.84-5.85c-.16-.4-.48-.67-.87-.8-.41-.09-.85-.03-1.12.28-.46.38-.14 1-.13 1.5 0 .1.02.17-.09.22-1.85-.16-3.58-.62-5.43-.82-.42-.07-.84-.05-1.25-.14l-.51-.05c-1.6.05-3.2.14-4.7.53-.32.1-.68.12-1 .24-.23-.04-.42.13-.64.07l-.42.1-.15-.01c-.2-.53.41-.85.22-1.37-.16-.3-.5-.58-.88-.52-.44-.06-.82.19-1.03.52-.3.64.08 1.31.2 1.94-.03.2.2.44 0 .6a1.76 1.76 0 0 0-1.45-.29c-.16.08-.44-.02-.51.16.55.3 1.25.25 1.87.23.07-.03.12-.04.19.01.05.33-.07.78.14 1.08.23.3.61.39.98.42 1.18-.03 2.23-.38 3.3-.65.18-.01.3-.1.48-.1.58-.13 1.2-.24 1.82-.25a3.2 3.2 0 0 0-.54 1.16c-.15.35.27.4.4.59-.4.12-.68.39-1.05.54-.82-.03-1.51.28-2.28.37-.01.17.27.12.3.28-.04.12-.16.13-.25.2-.01.07 0 .09.08.1.08-.09.24-.03.32-.12.26 0 .47-.07.72-.08.21-.1.46-.1.65-.26.27-.08.43-.26.7-.34.39 0 .73-.13 1.1-.15v.08c-.3.47-.6.96-.92 1.41-.05.09.02.18.1.2.17.06.35 0 .5-.07.26-.46.5-.9.72-1.38.1-.43.41-.66.73-.96.05-.03.13-.1.18-.03-.25.3-.42.58-.61.9-.1.36-.13.83.19 1.12.15.13.38.1.59.1.5-.25 1.14.16 1.52-.33.23-.04.27.23.4.36.22.06.45.28.67.13-.02-.14-.17-.27-.25-.4-.15-.27-.34-.49-.49-.73-.06-.18-.17-.3-.2-.48.23.08.44.23.7.27.21.1.48.08.68.2.17.23.43.36.64.5.32.15.68.18 1.02.3.12.02.32.12.4 0a.54.54 0 0 0-.19-.14c-.04-.16.23-.07.32-.2-.03-.06-.08-.1-.14-.1-.19-.1-.64-.13-.77-.2-.15-.02-.3-.09-.44-.14-.77 0-1.2-.7-1.81-.95.14-.13.36-.23.45-.42.11-.18.15-.48.04-.69-.12-.4-.63-.34-.93-.56l.04-.04c.5-.03.94.09 1.39.18 1.23.17 2.37.63 3.65.66.7 0 1.58.03 1.93-.65l.2-1.2c.16-.64.58-1.23.52-1.93ZM5.37 39.52l-.83-1.93-.87 1.93h1.7Zm.14.3H3.53l-.24.55c-.07.18-.11.33-.11.45 0 .15.06.27.19.34.07.05.26.08.55.1v.15H2.05v-.15c.2-.03.37-.11.5-.25.13-.13.29-.42.48-.84l2-4.47h.09l2.02 4.6c.2.43.36.7.48.81.1.09.23.14.4.15v.15H5.3v-.15h.11c.22 0 .37-.03.46-.09.06-.04.1-.1.1-.19l-.03-.15c0-.03-.05-.13-.13-.31l-.3-.7ZM11.8 37.55v3.03c0 .3.03.47.08.55.06.07.17.12.34.14v.14h-1.58v-.51a2 2 0 0 1-.56.48c-.18.1-.39.15-.62.15a.92.92 0 0 1-.58-.2.98.98 0 0 1-.34-.47c-.06-.18-.09-.49-.09-.94V38.4c0-.29-.03-.47-.08-.54-.05-.07-.17-.12-.34-.14v-.16h1.58v2.64c0 .28.01.46.04.54.03.08.07.14.12.18.06.04.13.06.2.06.1 0 .2-.03.27-.08.11-.07.24-.22.4-.43v-2.07c0-.29-.03-.47-.08-.54-.06-.07-.17-.12-.34-.14v-.16h1.58ZM14.89 37.45l.06 1.31h-.14c-.17-.39-.35-.65-.53-.8a.88.88 0 0 0-.54-.21.4.4 0 0 0-.29.11.35.35 0 0 0-.12.26c0 .08.03.15.08.22.1.11.34.3.75.58.4.27.67.5.8.7.13.19.19.4.19.64 0 .21-.05.42-.16.63-.1.2-.26.37-.46.48-.2.1-.41.16-.65.16-.18 0-.43-.06-.74-.17a.62.62 0 0 0-.17-.05c-.09 0-.17.07-.23.2h-.13l-.07-1.38h.14c.13.36.3.64.51.82.22.18.43.27.62.27.13 0 .24-.04.32-.12a.4.4 0 0 0 .13-.3.5.5 0 0 0-.13-.34c-.08-.1-.26-.24-.55-.44-.42-.29-.7-.51-.82-.67a1.16 1.16 0 0 1-.27-.74c0-.3.1-.57.3-.81.21-.24.5-.36.9-.36.2 0 .41.05.6.15.08.04.14.06.19.06.05 0 .09 0 .12-.03a.8.8 0 0 0 .14-.17h.15ZM16.94 36.14v1.41h.92v.41h-.92v2.38c0 .23 0 .37.03.44.02.06.06.11.1.15.06.04.1.06.15.06.18 0 .35-.13.51-.4l.13.09c-.23.52-.59.79-1.1.79a.97.97 0 0 1-.62-.2.9.9 0 0 1-.32-.46 3.9 3.9 0 0 1-.04-.76v-2.09h-.5v-.14a4.7 4.7 0 0 0 1.53-1.68h.13ZM19.5 37.55v.88c.25-.4.47-.66.67-.8a1 1 0 0 1 .56-.2.5.5 0 0 1 .37.15c.1.1.14.23.14.4 0 .19-.05.33-.14.43-.09.1-.2.16-.32.16a.56.56 0 0 1-.38-.14l-.2-.16a.2.2 0 0 0-.09-.03.35.35 0 0 0-.23.1c-.11.09-.2.22-.25.4-.1.26-.14.56-.14.88v1.12c0 .15.02.25.04.3.03.07.08.13.14.16.07.04.18.06.33.07v.14h-2.09v-.14c.17-.02.28-.06.34-.14.06-.08.1-.29.1-.62v-2.14c0-.22-.02-.36-.04-.42a.33.33 0 0 0-.12-.17.64.64 0 0 0-.28-.07v-.16h1.58ZM23.45 40.54v-1.29c-.33.2-.58.4-.74.63-.11.15-.17.3-.17.45 0 .13.05.24.14.33.07.08.17.11.29.11.14 0 .3-.07.48-.23Zm0 .3c-.47.42-.9.63-1.27.63a.75.75 0 0 1-.77-.76c0-.3.13-.56.38-.8.25-.23.8-.54 1.66-.94v-.38c0-.3-.01-.48-.05-.55a.45.45 0 0 0-.18-.2.55.55 0 0 0-.3-.09.77.77 0 0 0-.44.12c-.07.05-.1.11-.1.18 0 .05.03.13.11.21.1.12.16.23.16.34 0 .14-.05.25-.15.35-.1.1-.24.14-.4.14a.63.63 0 0 1-.44-.16.48.48 0 0 1-.17-.36c0-.2.08-.4.23-.57.16-.18.38-.32.66-.42.28-.1.58-.14.88-.14.37 0 .66.08.87.23.22.16.36.33.42.5.04.12.06.39.06.8v1.5c0 .18 0 .3.02.34a.2.2 0 0 0 .06.1c.03.02.06.03.1.03.07 0 .14-.05.21-.15l.13.1c-.14.2-.28.35-.43.44a.93.93 0 0 1-.5.14.79.79 0 0 1-.52-.16.7.7 0 0 1-.23-.47Z"/>
      <path d="M26.73 35.82v4.8c0 .27.03.44.1.52.06.07.18.12.37.13v.14h-2.1v-.14c.18-.01.3-.06.39-.15.05-.07.08-.23.08-.5v-4c0-.27-.03-.44-.1-.52-.06-.08-.18-.12-.36-.13v-.15h1.62Z"/>
      <path d="M28.17 35.69c.18 0 .33.06.45.18.13.13.19.28.19.45a.6.6 0 0 1-.19.45.62.62 0 0 1-.45.19.61.61 0 0 1-.45-.19.61.61 0 0 1-.2-.45c0-.17.07-.32.2-.45a.61.61 0 0 1 .45-.18Zm.58 1.87v3.05c0 .28.03.45.1.53.06.07.18.11.36.13v.14h-2.09v-.14c.17 0 .3-.06.38-.15.06-.07.09-.23.09-.5v-2.26c0-.27-.04-.45-.1-.52-.06-.08-.18-.12-.37-.13v-.15h1.63ZM31.56 40.54v-1.29c-.34.2-.58.4-.75.63-.1.15-.16.3-.16.45 0 .13.05.24.14.33.07.08.16.11.29.11.14 0 .3-.07.48-.23Zm0 .3c-.47.42-.9.63-1.27.63a.75.75 0 0 1-.77-.76c0-.3.12-.56.38-.8.25-.23.8-.54 1.66-.94v-.38c0-.3-.02-.48-.05-.55a.45.45 0 0 0-.18-.2.55.55 0 0 0-.3-.09.77.77 0 0 0-.44.12c-.07.05-.1.11-.1.18 0 .05.03.13.1.21.11.12.16.23.16.34 0 .14-.05.25-.15.35-.1.1-.23.14-.4.14a.63.63 0 0 1-.43-.16.48.48 0 0 1-.18-.36c0-.2.08-.4.24-.57.16-.18.38-.32.66-.42.28-.1.57-.14.88-.14.37 0 .66.08.87.23.21.16.35.33.42.5.04.12.05.39.05.8v1.5c0 .18.01.3.02.34a.2.2 0 0 0 .07.1c.02.02.06.03.1.03.06 0 .14-.05.21-.15l.13.1c-.14.2-.29.35-.43.44a.93.93 0 0 1-.5.14.79.79 0 0 1-.52-.16.7.7 0 0 1-.23-.47ZM35.08 37.55v.5c.2-.21.39-.37.57-.46.18-.1.38-.15.59-.15.25 0 .46.07.62.2a1 1 0 0 1 .33.53c.05.15.07.45.07.9v1.5c0 .3.03.48.08.56.05.07.17.12.34.14v.14h-1.96v-.14c.15-.02.25-.08.31-.19.05-.06.07-.24.07-.5v-1.72c0-.32-.01-.52-.04-.6a.36.36 0 0 0-.12-.2.32.32 0 0 0-.2-.06c-.24 0-.46.17-.66.5v2.07c0 .3.02.47.08.55.05.08.15.13.3.15v.14H33.5v-.14c.16-.02.28-.07.35-.16.04-.06.07-.24.07-.54V38.4c0-.29-.03-.47-.08-.54-.06-.07-.17-.12-.34-.14v-.16h1.58ZM45.56 35.69v1.97h-.15a2.51 2.51 0 0 0-.83-1.23 1.97 1.97 0 0 0-1.22-.42c-.42 0-.77.12-1.05.35-.27.24-.47.57-.59.99a4.87 4.87 0 0 0 .02 2.7c.13.41.33.7.61.9.29.19.62.28 1.01.28.14 0 .28-.01.42-.04.14-.03.29-.07.44-.13V39.9c0-.22-.02-.36-.05-.43a.42.42 0 0 0-.19-.17.71.71 0 0 0-.34-.08h-.15v-.15h2.73v.15c-.2.01-.35.04-.43.08a.42.42 0 0 0-.19.22c-.02.05-.04.18-.04.38v1.16a5.63 5.63 0 0 1-2.33.49c-.53 0-.97-.08-1.32-.22a3.32 3.32 0 0 1-.94-.57c-.26-.23-.48-.5-.63-.8-.2-.37-.29-.8-.29-1.27 0-.84.3-1.55.9-2.13.59-.59 1.33-.87 2.24-.87.27 0 .52.02.75.06.12.02.32.09.59.19.27.1.43.15.48.15.08 0 .15-.03.22-.08a.75.75 0 0 0 .18-.32h.15ZM48.1 37.73a.48.48 0 0 0-.36.16c-.1.1-.17.32-.2.63a13.63 13.63 0 0 0 0 2.13c.04.2.1.34.2.44a.47.47 0 0 0 .65.05.7.7 0 0 0 .22-.4 9.59 9.59 0 0 0 0-2.54.74.74 0 0 0-.23-.38.44.44 0 0 0-.28-.09Zm-.02-.3c.34 0 .65.1.94.27.3.17.51.42.66.74.15.32.23.67.23 1.05 0 .54-.14 1-.42 1.37-.34.45-.8.67-1.4.67a1.6 1.6 0 0 1-1.34-.61c-.32-.4-.47-.88-.47-1.42 0-.55.16-1.03.48-1.44.32-.42.76-.62 1.32-.62ZM51.9 41.53l-1.3-3a2.85 2.85 0 0 0-.37-.68.5.5 0 0 0-.28-.14v-.15h2.06v.15c-.13 0-.22.02-.27.07a.28.28 0 0 0-.1.21c0 .1.07.3.19.58l.64 1.45.5-1.26c.15-.35.22-.6.22-.76a.26.26 0 0 0-.09-.2c-.06-.06-.17-.09-.33-.1v-.14h1.27v.15a.52.52 0 0 0-.3.13c-.08.08-.2.3-.35.66l-1.29 3.03h-.2ZM56.32 39.07c0-.44-.02-.75-.07-.91a.74.74 0 0 0-.23-.38.35.35 0 0 0-.23-.07c-.14 0-.26.07-.35.2a1.8 1.8 0 0 0-.25 1.02v.14h1.13Zm1.02.28h-2.12a2 2 0 0 0 .4 1.21c.2.23.43.34.7.34.16 0 .31-.04.45-.14.13-.09.28-.25.43-.5l.14.1c-.2.42-.44.73-.7.9a1.5 1.5 0 0 1-.88.27c-.57 0-1-.22-1.3-.66-.24-.36-.36-.8-.36-1.32 0-.65.18-1.16.53-1.54.35-.38.75-.57 1.22-.57.4 0 .74.16 1.03.48.28.32.44.8.46 1.43ZM59.1 37.55v.88c.25-.4.48-.66.67-.8a1 1 0 0 1 .56-.2.5.5 0 0 1 .37.15c.1.1.14.23.14.4 0 .19-.05.33-.14.43-.09.1-.2.16-.32.16a.56.56 0 0 1-.38-.14c-.11-.1-.17-.15-.2-.16a.18.18 0 0 0-.09-.03.35.35 0 0 0-.23.1c-.11.09-.2.22-.25.4-.1.26-.14.56-.14.88v1.12c0 .15.02.25.04.3.03.07.08.13.14.16.07.04.18.06.33.07v.14h-2.09v-.14c.17-.02.28-.06.34-.14.06-.08.1-.29.1-.62v-2.14c0-.22-.02-.36-.04-.42a.32.32 0 0 0-.12-.17.64.64 0 0 0-.28-.07v-.16h1.58ZM62.5 37.55v.5c.2-.21.39-.37.57-.46.18-.1.38-.15.59-.15.25 0 .46.07.62.2a1 1 0 0 1 .33.53c.05.15.07.45.07.9v1.5c0 .3.03.48.08.56.05.07.17.12.34.14v.14h-1.96v-.14c.14-.02.25-.08.31-.19.05-.06.07-.24.07-.5v-1.72c0-.32-.01-.52-.04-.6a.36.36 0 0 0-.13-.2.32.32 0 0 0-.2-.06c-.23 0-.45.17-.65.5v2.07c0 .3.02.47.08.55.05.08.15.13.3.15v.14h-1.96v-.14c.16-.02.28-.07.35-.16.04-.06.07-.24.07-.54V38.4c0-.29-.03-.47-.08-.54-.06-.07-.17-.12-.34-.14v-.16h1.58ZM66.9 37.55v.51c.21-.23.4-.4.59-.48a1.3 1.3 0 0 1 1.22.03c.17.12.3.3.4.53.21-.25.42-.43.63-.54.2-.1.41-.16.63-.16.27 0 .48.06.64.18.16.13.27.28.33.47.07.19.1.49.1.9v1.58c0 .3.02.48.08.56.05.07.16.11.34.14v.14h-2v-.14c.15-.02.27-.08.34-.19.05-.07.08-.24.08-.5V38.9c0-.34-.02-.56-.05-.65a.38.38 0 0 0-.13-.21.33.33 0 0 0-.2-.07.62.62 0 0 0-.37.13c-.12.09-.24.22-.36.39v2.07c0 .28.02.45.07.53.06.1.18.16.36.17v.14h-2v-.14c.1-.01.19-.04.25-.08.06-.05.1-.11.13-.18.02-.07.03-.21.03-.44v-1.66c0-.35-.02-.57-.04-.65a.4.4 0 0 0-.14-.21.34.34 0 0 0-.21-.07.55.55 0 0 0-.3.08c-.14.09-.27.23-.42.44v2.07c0 .27.03.45.08.54.06.09.17.14.34.16v.14h-2v-.14c.16-.02.28-.07.35-.16.05-.06.07-.24.07-.54V38.4c0-.29-.03-.47-.08-.54-.05-.07-.17-.12-.34-.14v-.16h1.58ZM74.28 39.07c0-.44-.02-.75-.07-.91a.74.74 0 0 0-.23-.38.35.35 0 0 0-.23-.07c-.14 0-.26.07-.35.2a1.8 1.8 0 0 0-.25 1.02v.14h1.13Zm1.02.28h-2.12a2 2 0 0 0 .4 1.21c.2.23.43.34.7.34.16 0 .31-.04.45-.14.13-.09.28-.25.43-.5l.14.1c-.2.42-.44.73-.7.9a1.5 1.5 0 0 1-.88.27c-.57 0-1-.22-1.3-.66-.24-.36-.36-.8-.36-1.32 0-.65.18-1.16.53-1.54.35-.38.76-.57 1.22-.57.4 0 .74.16 1.03.48.28.32.44.8.46 1.43ZM77.03 37.55v.5c.2-.21.39-.37.57-.46.18-.1.38-.15.59-.15a.95.95 0 0 1 .96.73c.04.15.06.45.06.9v1.5c0 .3.03.48.08.56.06.07.17.12.34.14v.14h-1.96v-.14c.15-.02.25-.08.32-.19.04-.06.06-.24.06-.5v-1.72c0-.32 0-.52-.03-.6a.37.37 0 0 0-.13-.2.32.32 0 0 0-.2-.06c-.23 0-.46.17-.66.5v2.07c0 .3.03.47.08.55.05.08.16.13.3.15v.14h-1.96v-.14c.17-.02.28-.07.35-.16.05-.06.07-.24.07-.54V38.4c0-.29-.03-.47-.08-.54-.06-.07-.17-.12-.34-.14v-.16h1.58ZM81.36 36.14v1.41h.92v.41h-.92v2.38c0 .23.01.37.03.44.03.06.06.11.11.15.06.04.1.06.15.06.18 0 .35-.13.5-.4l.13.09c-.22.52-.58.79-1.09.79a.96.96 0 0 1-.62-.2.9.9 0 0 1-.33-.46c-.02-.1-.04-.35-.04-.76v-2.09h-.5v-.14a4.64 4.64 0 0 0 1.53-1.68h.13Z"/>
    </g>
    <path fill-rule="evenodd" clip-rule="evenodd" d="m173.63 17.65 1.85 17.7 46.06 5.54-1.7-23.24h-46.2Z" fill="#0076BB"/>
    <path fill-rule="evenodd" clip-rule="evenodd" d="M181.51 24.48c-.38.4-.62.92-.72 1.59h4.67a2.22 2.22 0 0 0-.72-1.62 2.4 2.4 0 0 0-1.6-.55c-.7 0-1.25.2-1.63.58Zm4.06-2.31a4.2 4.2 0 0 1 1.8 1.51 5 5 0 0 1 .82 2.12c.07.47.1 1.15.1 2.04h-7.57c.04 1.03.4 1.75 1.09 2.16.41.26.91.39 1.5.39.61 0 1.11-.16 1.5-.47.21-.17.4-.4.56-.71h2.77c-.07.6-.41 1.23-1 1.85-.94 1-2.24 1.5-3.91 1.5a5.7 5.7 0 0 1-3.66-1.26c-1.05-.84-1.58-2.21-1.58-4.1 0-1.78.47-3.14 1.43-4.1a5.04 5.04 0 0 1 3.71-1.41c.9 0 1.72.16 2.44.48Z" fill="#FEFEFE"/>
    <path fill-rule="evenodd" clip-rule="evenodd" d="M194.45 27.23a3.04 3.04 0 0 1-1.26.44l-.61.11c-.58.1-1 .22-1.25.37-.43.24-.64.62-.64 1.14 0 .45.13.78.39.99.26.2.58.3.95.3.6 0 1.14-.17 1.64-.5.5-.34.76-.96.78-1.86v-1Zm-1.66-1.26c.5-.06.87-.14 1.08-.23.4-.16.59-.42.59-.76 0-.42-.15-.71-.45-.87-.3-.16-.74-.24-1.32-.24-.65 0-1.1.16-1.38.47-.2.23-.32.54-.38.94h-2.62c.05-.9.31-1.63.76-2.21.72-.9 1.96-1.36 3.71-1.36 1.14 0 2.16.23 3.04.67.89.45 1.33 1.29 1.33 2.52v4.7l.02 1.2c.02.34.08.58.16.7.1.13.23.23.4.32v.4h-2.95c-.08-.22-.14-.41-.17-.6a6.85 6.85 0 0 1-.08-.61c-.37.4-.8.74-1.3 1.02-.58.33-1.25.5-1.99.5-.95 0-1.73-.26-2.34-.8a2.8 2.8 0 0 1-.93-2.25c0-1.26.5-2.17 1.5-2.73a6.7 6.7 0 0 1 2.39-.66l.93-.12ZM200.65 28.94c.06.47.18.81.38 1.01.33.36.96.54 1.87.54.54 0 .96-.08 1.28-.24.31-.15.47-.39.47-.7 0-.3-.13-.53-.38-.69-.25-.15-1.2-.42-2.84-.8a5.92 5.92 0 0 1-2.5-1.09c-.47-.42-.72-1.04-.72-1.84 0-.95.38-1.76 1.13-2.44a4.59 4.59 0 0 1 3.19-1.02c1.3 0 2.35.25 3.17.76.82.51 1.29 1.4 1.4 2.65h-2.7a1.59 1.59 0 0 0-.3-.82c-.3-.36-.81-.54-1.53-.54-.6 0-1.01.09-1.26.27-.26.18-.38.4-.38.64 0 .3.13.53.4.67s1.21.39 2.83.74c1.08.25 1.9.63 2.43 1.14.54.51.8 1.16.8 1.93a3.1 3.1 0 0 1-1.15 2.48c-.76.65-1.95.97-3.55.97-1.63 0-2.84-.34-3.62-1.02a3.3 3.3 0 0 1-1.17-2.6h2.75ZM208.83 34.18l.34.02c.27 0 .52 0 .76-.03s.45-.1.61-.22c.16-.1.3-.33.45-.67.13-.34.19-.54.17-.62l-3.81-10.7h3.02l2.26 7.56 2.15-7.56h2.88l-3.56 10.08c-.69 1.94-1.23 3.15-1.63 3.62-.4.46-1.2.7-2.4.7a30.49 30.49 0 0 1-1.24-.04v-2.14Z" fill="#FEFEFE"/>
    <path fill-rule="evenodd" clip-rule="evenodd" d="M110.45 16.41v.6h-1.7v4.36h-.68v-4.36h-1.69v-.6h4.07ZM110.65 16.4h.61v1.85c.15-.19.28-.31.4-.39.2-.13.44-.19.73-.19.53 0 .9.18 1.08.55.1.2.16.48.16.83v2.32H113v-2.28c0-.26-.04-.46-.1-.58-.12-.2-.33-.3-.64-.3-.25 0-.48.09-.69.26-.2.18-.3.5-.3.98v1.92h-.62V16.4ZM116.67 19.27a1.58 1.58 0 0 0-.18-.63c-.16-.29-.44-.43-.83-.43-.28 0-.52.1-.7.3-.2.2-.3.45-.3.76h2Zm-.22-1.41c.24.12.42.27.55.46.12.19.2.4.24.64.04.17.06.43.06.8h-2.66c0 .36.1.66.26.88.16.22.41.33.75.33a.98.98 0 0 0 1-.73h.6a1.6 1.6 0 0 1-.46.84c-.19.18-.42.3-.7.36-.14.04-.3.06-.49.06-.45 0-.84-.17-1.15-.5a1.9 1.9 0 0 1-.47-1.37c0-.58.16-1.05.47-1.41.32-.36.73-.54 1.25-.54.25 0 .5.06.75.18ZM121.59 20.6c.19-.23.28-.59.28-1.06 0-.29-.04-.53-.13-.74a.87.87 0 0 0-.87-.6c-.43 0-.72.21-.88.63a2.45 2.45 0 0 0 0 1.57c.16.37.45.56.88.56.29 0 .52-.12.72-.35Zm-2.32-2.83h.6v.48c.13-.16.26-.29.4-.38.22-.13.46-.2.74-.2.42 0 .77.16 1.06.47.29.31.43.76.43 1.34 0 .8-.2 1.35-.62 1.7-.27.2-.58.31-.93.31-.28 0-.5-.06-.7-.18a1.59 1.59 0 0 1-.36-.34v1.84h-.62v-5.04ZM125.13 20.52c.15-.3.23-.64.23-1.02 0-.33-.06-.6-.17-.82-.17-.33-.46-.5-.88-.5-.37 0-.64.14-.81.43-.17.28-.25.62-.25 1.02 0 .39.08.7.25.96.17.26.44.39.8.39.4 0 .68-.16.83-.46Zm.38-2.4c.33.3.49.76.49 1.37 0 .58-.14 1.06-.43 1.44-.28.38-.72.57-1.32.57-.5 0-.9-.17-1.2-.5-.29-.34-.44-.8-.44-1.36 0-.6.16-1.09.47-1.45.3-.36.73-.54 1.25-.54.47 0 .86.16 1.18.47ZM126.69 17.76l.7 2.84.72-2.84h.69l.71 2.83.75-2.83h.62l-1.06 3.6h-.64l-.75-2.79-.72 2.8h-.64l-1.05-3.61h.67ZM133.58 19.27a1.58 1.58 0 0 0-.17-.63c-.17-.29-.44-.43-.84-.43-.28 0-.51.1-.7.3-.19.2-.29.45-.3.76h2.01Zm-.22-1.41c.25.12.43.27.56.46.12.19.2.4.24.64.04.17.06.43.06.8h-2.66c0 .36.1.66.26.88.16.22.41.33.75.33a.98.98 0 0 0 .99-.73h.6c-.01.13-.06.28-.16.44a1.42 1.42 0 0 1-.99.76c-.14.04-.3.06-.5.06-.44 0-.83-.17-1.14-.5a1.9 1.9 0 0 1-.47-1.37c0-.58.16-1.05.47-1.41.32-.36.73-.54 1.24-.54.26 0 .51.06.75.18ZM134.66 17.76h.59v.62c.04-.12.16-.27.35-.44a.91.91 0 0 1 .7-.26l.14.01v.64a1.02 1.02 0 0 0-.2-.01c-.31 0-.55.1-.71.3-.17.19-.25.42-.25.67v2.08h-.62v-3.61ZM138.35 16.75h.62v1h.58v.5h-.58v2.36c0 .13.04.21.13.25.05.03.13.04.24.04a1.96 1.96 0 0 0 .21-.01v.48l-.22.04-.25.02c-.28 0-.48-.08-.58-.22a.96.96 0 0 1-.15-.57v-2.39h-.5v-.5h.5v-1ZM142.1 20.52c.14-.3.22-.64.22-1.02 0-.33-.06-.6-.17-.82-.17-.33-.46-.5-.88-.5-.37 0-.64.14-.81.43-.17.28-.25.62-.25 1.02 0 .39.08.7.25.96.17.26.44.39.8.39.4 0 .68-.16.83-.46Zm.37-2.4c.33.3.49.76.49 1.37 0 .58-.14 1.06-.43 1.44-.28.38-.73.57-1.32.57-.5 0-.9-.17-1.2-.5-.29-.34-.44-.8-.44-1.36 0-.6.16-1.09.47-1.45.3-.36.72-.54 1.25-.54.46 0 .86.16 1.18.47ZM147.38 17.95c.26.2.41.54.47 1.02h-.6c-.04-.22-.12-.4-.25-.55-.13-.15-.34-.22-.63-.22-.39 0-.67.18-.84.56-.1.25-.16.55-.16.9 0 .37.08.67.23.92.16.25.4.37.73.37a.8.8 0 0 0 .6-.23c.16-.15.26-.36.32-.63h.6c-.07.48-.24.83-.52 1.05a1.6 1.6 0 0 1-1.05.33 1.4 1.4 0 0 1-1.14-.51 1.96 1.96 0 0 1-.42-1.3c0-.63.15-1.12.46-1.48.31-.35.71-.53 1.2-.53.4 0 .74.1 1 .3ZM150.38 20.52c.15-.3.22-.64.22-1.02 0-.33-.05-.6-.16-.82-.17-.33-.47-.5-.88-.5-.38 0-.65.14-.81.43-.17.28-.26.62-.26 1.02 0 .39.09.7.26.96.16.26.43.39.8.39.4 0 .68-.16.83-.46Zm.38-2.4c.32.3.49.76.49 1.37 0 .58-.15 1.06-.43 1.44-.29.38-.73.57-1.33.57-.5 0-.9-.17-1.19-.5-.3-.34-.44-.8-.44-1.36 0-.6.16-1.09.47-1.45.3-.36.72-.54 1.24-.54.47 0 .87.16 1.19.47ZM151.65 17.76h.6v.51c.15-.18.29-.3.4-.39.2-.13.44-.2.7-.2.28 0 .52.07.7.2.1.09.19.2.27.37.14-.2.3-.34.48-.43.19-.1.4-.14.62-.14.5 0 .83.17 1 .52.1.2.15.45.15.76v2.4h-.64v-2.5c0-.24-.06-.4-.18-.5a.73.73 0 0 0-.45-.13.9.9 0 0 0-.62.24c-.17.16-.26.43-.26.8v2.1h-.63V19c0-.24-.03-.42-.08-.53-.1-.17-.27-.26-.53-.26a.9.9 0 0 0-.63.27c-.19.18-.29.5-.29.96v1.92h-.61v-3.61ZM159.39 20.6c.19-.23.28-.59.28-1.06 0-.29-.04-.53-.12-.74a.87.87 0 0 0-.88-.6c-.43 0-.72.21-.88.63a2.45 2.45 0 0 0 0 1.57c.16.37.45.56.88.56.29 0 .53-.12.72-.35Zm-2.32-2.83h.6v.48c.13-.16.26-.29.4-.38.22-.13.46-.2.74-.2.42 0 .77.16 1.06.47.29.31.44.76.44 1.34 0 .8-.22 1.35-.63 1.7-.27.2-.58.31-.93.31-.28 0-.5-.06-.7-.18a1.59 1.59 0 0 1-.36-.34v1.84h-.62v-5.04ZM161.33 20.82c.13.1.28.15.46.15.22 0 .43-.04.63-.14a.83.83 0 0 0 .51-.8v-.5c-.07.05-.17.1-.29.12a2.5 2.5 0 0 1-.35.07l-.37.05c-.22.03-.39.07-.5.14a.53.53 0 0 0-.28.5c0 .17.06.31.2.41Zm1.3-1.64c.14-.01.23-.07.28-.17a.53.53 0 0 0 .04-.24c0-.2-.08-.35-.22-.45a1.2 1.2 0 0 0-.64-.14c-.32 0-.55.09-.69.26a.85.85 0 0 0-.14.42h-.57c0-.44.15-.75.43-.93.28-.17.61-.26.98-.26a2 2 0 0 1 1.05.24c.26.16.4.42.4.76v2.08c0 .06 0 .11.04.15.02.04.08.06.16.06a.97.97 0 0 0 .2-.02v.45l-.22.05h-.2c-.21 0-.37-.07-.46-.22a.84.84 0 0 1-.1-.33c-.13.16-.31.3-.55.42-.23.12-.49.18-.77.18-.34 0-.62-.1-.83-.3a1 1 0 0 1-.33-.77c0-.33.11-.6.32-.77.21-.19.5-.3.84-.34l.97-.13ZM164.22 17.76h.59v.62c.04-.12.16-.27.35-.44a.92.92 0 0 1 .7-.26l.14.01v.64a1.06 1.06 0 0 0-.2-.01c-.31 0-.55.1-.72.3-.16.19-.25.42-.25.67v2.08h-.6v-3.61ZM168.66 19.27a1.56 1.56 0 0 0-.17-.63c-.17-.29-.45-.43-.84-.43-.28 0-.51.1-.7.3-.2.2-.3.45-.3.76h2.01Zm-.22-1.41c.24.12.43.27.56.46.12.19.2.4.24.64.03.17.05.43.05.8h-2.66c.02.36.1.66.27.88.16.22.4.33.75.33a.98.98 0 0 0 .99-.73h.6c-.01.13-.07.28-.16.44a1.42 1.42 0 0 1-.99.76 2.1 2.1 0 0 1-.5.06c-.45 0-.83-.17-1.14-.5a1.9 1.9 0 0 1-.47-1.37c0-.58.15-1.05.47-1.41.32-.36.73-.54 1.24-.54.26 0 .5.06.75.18Z" fill="#0C3A60"/>
    <mask id="c" style="mask-type:alpha" maskUnits="userSpaceOnUse" x="106" y="1" width="11" height="14">
      <path d="M106.31 1.32h9.76v12.71h-9.76V1.32Z" fill="#fff"/>
    </mask>
    <g mask="url(#c)">
      <path fill-rule="evenodd" clip-rule="evenodd" d="M115.75 3.57h-6.8v2.7h6.24v2.2h-6.25v3.28h7.13v2.28h-9.76V1.32h9.44v2.25Z" fill="#0076BB"/>
    </g>
    <path fill-rule="evenodd" clip-rule="evenodd" d="M116.78 1.32h2.82l5.1 8.86V1.32h2.52v12.71h-2.7l-5.23-9.02v9.02h-2.51V1.32ZM137.91 3.57h-6.8v2.7h6.25v2.2h-6.26v3.28h7.13v2.28h-9.75V1.32h9.44v2.25ZM141.68 3.53v3.41h2.89c.58 0 1-.07 1.3-.2.5-.25.76-.72.76-1.44 0-.77-.25-1.29-.74-1.55a2.7 2.7 0 0 0-1.25-.22h-2.96Zm5.56-1.89c.47.2.87.5 1.2.9a3.54 3.54 0 0 1 .89 2.4c0 .6-.16 1.2-.47 1.78-.3.58-.82 1-1.53 1.24.6.23 1.02.57 1.27 1 .24.44.37 1.1.37 2v.85c0 .58.02.97.07 1.18.07.33.23.57.5.72v.32h-2.97a6.18 6.18 0 0 1-.29-1.78l-.02-1.18c-.01-.8-.15-1.35-.42-1.62-.28-.27-.79-.4-1.54-.4h-2.63v4.98h-2.62V1.32h6.15c.88.01 1.56.12 2.04.32ZM159.21 5.28a2.5 2.5 0 0 0-1.49-1.81 3.7 3.7 0 0 0-1.48-.29c-1.03 0-1.88.39-2.55 1.16-.67.77-1 1.93-1 3.48 0 1.56.36 2.67 1.08 3.31.72.65 1.55.98 2.47.98.9 0 1.64-.26 2.21-.77a3.3 3.3 0 0 0 1.07-2.01h-2.98V7.21h5.36v6.82h-1.78l-.27-1.59c-.52.6-.98 1.03-1.4 1.27-.7.43-1.58.65-2.62.65-1.7 0-3.1-.58-4.19-1.75-1.13-1.17-1.7-2.78-1.7-4.81a7 7 0 0 1 1.72-4.95A5.9 5.9 0 0 1 156.21 1a6 6 0 0 1 3.94 1.23c1 .82 1.56 1.84 1.71 3.06h-2.65ZM170.47 1.32h3.05l-4.3 7.94v4.77h-2.7V9.26l-4.45-7.94h3.17l2.67 5.53 2.56-5.53Z" fill="#0076BB"/>
    <path fill-rule="evenodd" clip-rule="evenodd" d="M176.4 1.36h2.48l1.38 10.71 5.97-10.71h2.46l-2.72 12.67h-1.65l1.6-7.48.3-1.28.43-1.93-5.96 10.7h-1.72l-1.39-10.7-.08.4a134.73 134.73 0 0 0-.56 2.81l-1.6 7.48h-1.67l2.73-12.67ZM194.97 8.84l-.75-5.6-3.27 5.6h4.02Zm-1.24-7.48h1.96l1.93 12.67h-1.9l-.5-3.8h-5.06l-2.2 3.8h-1.79l7.56-12.67ZM203.1 12.56c.59 0 1.08-.06 1.49-.18a4.3 4.3 0 0 0 1.93-1.3 8.15 8.15 0 0 0 1.58-3.3c.34-1.55.29-2.77-.16-3.64-.44-.87-1.37-1.3-2.77-1.3h-3.08L200 12.56h3.1Zm-2.44-11.2h5.2c1.76 0 3 .62 3.7 1.85.63 1.12.76 2.55.38 4.3a9.99 9.99 0 0 1-1.56 3.64 6.08 6.08 0 0 1-5.26 2.88h-5.18l2.72-12.67Z" fill="#0C3A60"/>
    <mask id="d" style="mask-type:alpha" maskUnits="userSpaceOnUse" x="209" y="1" width="13" height="14">
      <path d="M209.6 1.36h12.08v12.67H209.6V1.36Z" fill="#fff"/>
    </mask>
    <g mask="url(#d)">
      <path fill-rule="evenodd" clip-rule="evenodd" d="M212.33 1.36h9.35l-.34 1.55h-7.66l-.82 3.85h7.08l-.31 1.47h-7.09l-.92 4.3h7.79l-.32 1.5h-9.49l2.73-12.67Z" fill="#0C3A60"/>
    </g>
  </g>
  <defs>
    <clipPath id="a">
      <path fill="#fff" transform="translate(0 .28)" d="M0 0h222v41.44H0z"/>
    </clipPath>
  </defs>
</svg>
